<svg width="49" height="49" viewBox="0 0 49 49" fill="none" xmlns="http://www.w3.org/2000/svg">
<path d="M24.5323 22.5743L39.3823 37.4241C39.4939 37.5348 39.5824 37.6665 39.6429 37.8116C39.7033 37.9566 39.7344 38.112 39.7344 38.2691C39.7344 38.4262 39.7033 38.5818 39.6429 38.7269C39.5824 38.8719 39.4939 39.0037 39.3823 39.1143C39.2708 39.2262 39.1383 39.3147 38.9925 39.3753C38.8466 39.4359 38.6902 39.4671 38.5323 39.4671C38.3744 39.4671 38.218 39.4359 38.0721 39.3753C37.9263 39.3147 37.7938 39.2262 37.6823 39.1143L24.5323 25.9642L11.3823 39.1143C11.2735 39.2351 11.1413 39.3323 10.9937 39.4004C10.8461 39.4686 10.6862 39.5061 10.5237 39.5105C10.3613 39.515 10.1996 39.4865 10.0485 39.4266C9.89736 39.3666 9.75999 39.2768 9.64471 39.1622C9.52944 39.0476 9.43864 38.9106 9.37784 38.7598C9.31704 38.6091 9.2875 38.4475 9.29102 38.285C9.29453 38.1224 9.33102 37.9625 9.39829 37.8145C9.46555 37.6665 9.56216 37.5336 9.68228 37.4241L24.5323 22.5743Z" fill="#9C9C9C"/>
<path d="M24.5323 7.8719L39.3823 22.7218C39.4939 22.8324 39.5824 22.9642 39.6429 23.1092C39.7033 23.2542 39.7344 23.4096 39.7344 23.5667C39.7344 23.7238 39.7033 23.8795 39.6429 24.0245C39.5824 24.1695 39.4939 24.3013 39.3823 24.4119C39.2708 24.5238 39.1383 24.6124 38.9925 24.6729C38.8466 24.7335 38.6902 24.7647 38.5323 24.7647C38.3744 24.7647 38.218 24.7335 38.0721 24.6729C37.9263 24.6124 37.7938 24.5238 37.6823 24.4119L24.5323 11.2618L11.3823 24.4119C11.2735 24.5327 11.1413 24.6299 10.9937 24.6981C10.8461 24.7662 10.6862 24.8037 10.5237 24.8082C10.3613 24.8127 10.1996 24.7841 10.0485 24.7242C9.89736 24.6643 9.75999 24.5744 9.64471 24.4598C9.52944 24.3452 9.43864 24.2082 9.37784 24.0574C9.31704 23.9067 9.2875 23.7451 9.29102 23.5826C9.29453 23.4201 9.33102 23.2601 9.39829 23.1121C9.46555 22.9642 9.56216 22.8313 9.68228 22.7218L24.5323 7.8719Z" fill="#9C9C9C"/>
</svg>
