<svg width="188" height="157" viewBox="0 0 188 157" fill="none" xmlns="http://www.w3.org/2000/svg">
<g clip-path="url(#clip0_131_4293)">
<path d="M67.4045 74.7667C69.0045 73.2667 72.1345 74.2568 73.8245 75.2667C76.1545 76.6567 77.7345 79.0668 79.2045 81.3168L79.6045 81.0268C79.7845 80.1768 79.8545 79.2868 79.7845 78.3768C79.3845 73.4068 75.0245 69.7068 70.0545 70.1068C65.0845 70.5068 61.3845 74.8668 61.7845 79.8368C62.1445 84.2468 65.6145 87.6568 69.8645 88.0868L70.0445 87.9568C68.5045 84.8068 64.2845 77.6968 67.3945 74.7768L67.4045 74.7667Z" fill="#00A4FF"/>
<path d="M74.3945 70.8264L77.6745 63.8364" stroke="#00A4FF" stroke-width="2.5" stroke-linecap="round" stroke-linejoin="round"/>
<path d="M73.3945 65.5964L77.6745 63.8364L79.0545 68.2564" stroke="#00A4FF" stroke-width="2.5" stroke-linecap="round" stroke-linejoin="round"/>
<path d="M90.2043 52.3966C87.5643 51.8666 84.5343 50.7266 82.7643 48.6166C80.9643 46.4666 81.3243 43.0466 84.0943 41.9066C85.4543 41.3466 86.9843 41.4966 88.4143 41.6566C90.5143 41.8966 92.6443 42.0366 94.7243 42.4366C94.8043 42.4566 94.8643 42.4866 94.9343 42.5166C93.5743 39.0666 90.1543 36.6866 86.2443 36.8166C81.2643 36.9866 77.3643 41.1566 77.5243 46.1366C77.6943 51.1166 81.8643 55.0166 86.8443 54.8566C89.0443 54.7866 91.0343 53.9266 92.5543 52.5666C91.7943 52.6966 90.9343 52.5466 90.1943 52.3966H90.2043Z" fill="#00A4FF"/>
<path d="M82.5446 53.9268L78.9346 60.7468" stroke="#00A4FF" stroke-width="2.5" stroke-linecap="round" stroke-linejoin="round"/>
<path d="M83.2946 59.1966L78.9346 60.7466L77.7646 56.2666" stroke="#00A4FF" stroke-width="2.5" stroke-linecap="round" stroke-linejoin="round"/>
<path d="M88.715 112.787H60.945C56.465 112.787 52.835 109.157 52.835 104.677V91.0068" stroke="white" stroke-width="2.5" stroke-linecap="round" stroke-linejoin="round"/>
<path d="M111.145 50.6868V10.5368C111.145 6.05676 107.515 2.42676 103.035 2.42676H60.945C56.465 2.42676 52.835 6.05676 52.835 10.5368V79.2468" stroke="white" stroke-width="2.5" stroke-linecap="round" stroke-linejoin="round"/>
<path d="M36.6143 152.787C36.6143 152.787 46.5843 143.457 55.2443 137.877C65.3943 131.347 77.7343 133.867 89.9443 113.867" stroke="white" stroke-width="2.5" stroke-linecap="round" stroke-linejoin="round"/>
<path d="M111.145 33.2664C111.145 33.2664 121.235 28.1664 123.955 32.6564C127.455 38.4364 122.245 41.6164 111.145 46.8764" stroke="white" stroke-width="2.5" stroke-linecap="round" stroke-linejoin="round"/>
<path d="M2.55469 121.817C3.25469 121.427 19.2647 109.607 21.7547 96.1367C24.7747 79.8267 24.7247 69.4467 30.1247 61.2767C33.3747 56.3667 36.7447 38.8867 41.0247 32.2667C41.0247 32.2667 40.8347 23.6967 43.3647 22.5267C45.8947 21.3567 51.1547 20.5767 51.1547 33.6267C51.1547 40.4467 48.8147 45.6967 48.8147 45.6967C48.8147 45.6967 48.4947 57.2267 46.2447 66.2067C46.2447 66.2067 60.5447 77.3067 48.4947 106.547" stroke="white" stroke-width="2.5" stroke-linecap="round" stroke-linejoin="round"/>
<path d="M48.4951 55.6065L52.8351 52.4565" stroke="white" stroke-width="2.5" stroke-linecap="round" stroke-linejoin="round"/>
<path d="M142.915 154.777C139.715 151.037 129.895 139.837 125.075 136.147C120.905 132.947 108.985 131.387 101.515 124.157C94.0448 116.927 74.4348 101.787 72.5548 95.5067C71.3548 91.5167 68.6148 83.2967 66.6148 79.2767C64.6048 75.2567 69.6648 70.4367 76.2948 77.6467C79.2748 80.8867 81.9248 84.7867 83.2248 86.7967C83.8248 87.7267 84.6248 88.5167 85.5648 89.1067C89.6248 91.6367 100.645 98.8267 104.535 98.1667C109.415 97.3267 111.265 93.9267 107.605 68.7867C107.405 67.4167 106.755 66.1567 105.745 65.2167C102.815 62.4667 96.5248 56.4267 94.0548 52.9067C93.8548 52.6267 93.5648 52.4467 93.2248 52.4067C90.9348 52.1767 81.8948 50.9167 81.2148 45.3767C80.2548 37.5067 101.045 43.8867 105.995 46.0767C109.605 47.6767 123.825 65.6767 123.825 65.6767" stroke="white" stroke-width="2.5" stroke-linecap="round" stroke-linejoin="round"/>
<path d="M113.145 52.8767C113.145 52.8767 116.805 50.0367 120.465 50.7267C124.125 51.4067 130.045 55.6167 137.015 66.6467" stroke="white" stroke-width="2.5" stroke-linecap="round" stroke-linejoin="round"/>
<path d="M128.194 55.2368C128.194 55.2368 131.704 53.0868 134.584 54.5268C137.634 56.0568 143.594 60.9668 148.894 69.1568" stroke="white" stroke-width="2.5" stroke-linecap="round" stroke-linejoin="round"/>
<path d="M141.194 58.8066C141.194 58.8066 152.244 60.0666 158.704 69.7766C163.154 76.4666 161.834 103.667 168.284 115.207C174.734 126.747 185.204 138.107 185.204 138.107" stroke="white" stroke-width="2.5" stroke-linecap="round" stroke-linejoin="round"/>
<path d="M102.865 62.4668C100.765 64.7268 94.5646 73.8168 96.8146 80.4068C98.6746 85.8568 107.725 88.6968 109.175 87.7668" stroke="white" stroke-width="2.5" stroke-linecap="round" stroke-linejoin="round"/>
<path d="M108.705 77.3567C108.705 77.3567 107.885 73.9867 104.175 77.3567" stroke="white" stroke-width="2.5" stroke-linecap="round" stroke-linejoin="round"/>
</g>
<defs>
<clipPath id="clip0_131_4293">
<rect width="186.65" height="156.35" fill="white" transform="translate(0.554688 0.426758)"/>
</clipPath>
</defs>
</svg>
