<svg width="49" height="49" viewBox="0 0 49 49" fill="none" xmlns="http://www.w3.org/2000/svg">
<g clip-path="url(#clip0_587_18877)">
<path d="M31.701 36.7661C31.5698 36.6335 31.4134 36.528 31.2409 36.457C31.0685 36.3859 30.8835 36.3502 30.697 36.352C30.5104 36.3489 30.325 36.3847 30.1523 36.4558C29.9797 36.5269 29.8234 36.6324 29.693 36.7661L22.9251 43.5334V21.4113C22.9251 21.0353 22.7758 20.6747 22.5099 20.4089C22.2441 20.1431 21.8836 19.9937 21.5077 19.9937C21.1318 19.9937 20.7713 20.1431 20.5055 20.4089C20.2397 20.6747 20.0904 21.0353 20.0904 21.4113V43.5334L13.3224 36.7661C13.1908 36.6339 13.0343 36.5285 12.862 36.457C12.6897 36.3854 12.505 36.3485 12.3185 36.3485C12.132 36.3485 11.9472 36.3854 11.7749 36.457C11.6026 36.5285 11.4462 36.6339 11.3145 36.7661C11.1827 36.8968 11.0781 37.0516 11.0067 37.2229C10.9353 37.3942 10.8986 37.5782 10.8986 37.7638C10.8986 37.9494 10.9353 38.1335 11.0067 38.3048C11.0781 38.4761 11.1827 38.6309 11.3145 38.7616L20.5038 47.9512L21.5077 48.9558L22.5117 47.9512L31.701 38.7616C31.8328 38.6309 31.9374 38.4761 32.0087 38.3048C32.0801 38.1335 32.1169 37.9494 32.1169 37.7638C32.1169 37.5782 32.0801 37.3942 32.0087 37.2229C31.9374 37.0516 31.8328 36.8968 31.701 36.7661Z" fill="#9C9C9C"/>
<path d="M46.8551 22.1082V22.8291C46.852 25.2684 45.8815 27.6063 44.1566 29.3312C42.4318 31.056 40.0933 32.0271 37.654 32.0302H27.6497C27.2738 32.0302 26.9133 31.8808 26.6475 31.615C26.3817 31.3492 26.2323 30.9886 26.2323 30.6126C26.2323 30.2367 26.3817 29.8761 26.6475 29.6103C26.9133 29.3445 27.2738 29.195 27.6497 29.195H37.6067C39.2942 29.1919 40.9118 28.5197 42.105 27.3264C43.2982 26.1332 43.97 24.5166 43.9731 22.8291V22.1082C43.97 20.4207 43.2982 18.803 42.105 17.6097C40.9118 16.4165 39.2942 15.7454 37.6067 15.7423H35.2444V14.1586C35.2444 12.5923 34.6222 11.0906 33.5147 9.98305C32.4072 8.87552 30.905 8.25286 29.3387 8.25286H24.874L23.8937 6.94254C22.6856 5.52389 21.0714 4.50934 19.269 4.03698C17.4665 3.56461 15.5625 3.65731 13.8139 4.30112C12.0653 4.94492 10.5563 6.10965 9.49054 7.63807C8.42475 9.1665 7.85348 10.9849 7.85379 12.8482C7.85386 13.243 7.87752 13.6374 7.92465 14.0294L8.01916 14.5842L8.21994 15.7653L7.15688 16.191L6.99158 16.2613C5.86066 16.7565 4.89923 17.5717 4.22558 18.6063C3.55194 19.6409 3.19546 20.8506 3.20009 22.0851V22.8049C3.20008 24.4913 3.86917 26.1086 5.06054 27.3022C6.25191 28.4958 7.86822 29.1688 9.55463 29.172H16.1218C16.4977 29.172 16.8582 29.3203 17.124 29.5861C17.3898 29.8519 17.5392 30.2125 17.5392 30.5884C17.5392 30.9643 17.3898 31.325 17.124 31.5908C16.8582 31.8566 16.4977 32.006 16.1218 32.006H9.55463C7.11627 31.9998 4.77959 31.0288 3.0554 29.3046C1.33121 27.5804 0.359806 25.2433 0.35357 22.8049V22.0851C0.349835 20.446 0.78625 18.8357 1.61733 17.4229C2.44841 16.01 3.64365 14.8456 5.07813 14.0525C5.07813 13.6627 5.07813 13.2729 5.07813 12.8713C5.08336 10.3998 5.85532 7.99133 7.28758 5.97709C8.71984 3.96286 10.7418 2.44272 13.0746 1.62625C15.4074 0.809775 17.936 0.737196 20.3118 1.41863C22.6875 2.10006 24.7933 3.50152 26.3387 5.43035H29.3387C31.4343 5.43096 33.4597 6.18562 35.045 7.55618C36.6302 8.92673 37.6695 10.822 37.9729 12.8955C40.3595 12.9783 42.6205 13.985 44.278 15.7042C45.9354 17.4234 46.8596 19.7201 46.8551 22.1082Z" fill="#9C9C9C"/>
</g>
<defs>
<clipPath id="clip0_587_18877">
<rect width="48" height="48" fill="white" transform="translate(0.353577 0.955811)"/>
</clipPath>
</defs>
</svg>
