<?xml version="1.0" encoding="UTF-8"?>
<!--Generator: Apple Native CoreSVG 175-->
<!DOCTYPE svg
PUBLIC "-//W3C//DTD SVG 1.1//EN"
       "http://www.w3.org/Graphics/SVG/1.1/DTD/svg11.dtd">
<svg version="1.1" xmlns="http://www.w3.org/2000/svg" xmlns:xlink="http://www.w3.org/1999/xlink" width="15.4832" height="15.5052">
 <g>
  <rect height="15.5052" opacity="0" width="15.4832" x="0" y="0"/>
  <path d="M0.25073 15.2513Q0.509679 15.4999 0.877449 15.4999Q1.24522 15.4999 1.49593 15.2513L7.73896 8.99581L13.9944 15.2513Q14.243 15.4999 14.6108 15.5051Q14.9786 15.5103 15.2293 15.2513Q15.4779 14.9902 15.4779 14.6276Q15.4779 14.2651 15.2293 14.0143L8.9738 7.76098L15.2293 1.51794Q15.4779 1.25687 15.4831 0.889115Q15.4883 0.521385 15.2293 0.272745Q14.9682 0.0220306 14.6056 0.0220306Q14.243 0.0220306 13.9944 0.272745L7.73896 6.52611L1.49593 0.272745Q1.24522 0.0220306 0.872282 0.0220306Q0.499349 0.0220306 0.25073 0.272745Q0 0.531715 0 0.894278Q0 1.25687 0.25073 1.51794L6.50409 7.76098L0.25073 14.0143Q0 14.2651 0 14.6328Q0 15.0006 0.25073 15.2513Z" fill="rgba(0,0,0,0.85)"/>
 </g>
</svg>
