<svg width="32" height="32" viewBox="0 0 32 32" fill="none" xmlns="http://www.w3.org/2000/svg">
<path d="M18.819 12.9746H24.9818V3.70048H18.819V12.9746ZM26.6485 13.9746L26.6453 14.0429C26.6133 14.3566 26.3638 14.6061 26.0502 14.638L25.9818 14.6412H17.819L17.7507 14.638C17.437 14.606 17.1875 14.3565 17.1556 14.0429L17.1523 13.9746V2.70048C17.1523 2.35536 17.4146 2.07129 17.7507 2.03707L17.819 2.03381H25.9818L26.0502 2.03707C26.3863 2.07126 26.6485 2.35534 26.6485 2.70048V13.9746Z" fill="#1F1F1F"/>
<path d="M6.67987 12.9746H12.8427V3.70049H6.67987V12.9746ZM14.5094 13.9746L14.5061 14.043C14.4742 14.3567 14.2248 14.6061 13.9111 14.638L13.8427 14.6413H5.67986L5.6115 14.638C5.29786 14.6061 5.04835 14.3566 5.01644 14.043L5.01318 13.9746V2.70048C5.01318 2.35536 5.27541 2.07129 5.6115 2.03707L5.67986 2.03381H13.8427L13.9111 2.03707C14.2472 2.07124 14.5094 2.35533 14.5094 2.70048V13.9746Z" fill="#1F1F1F"/>
<path d="M18.819 28.1247H24.9818V18.8506H18.819V28.1247ZM26.6485 29.1247L26.6453 29.1931C26.6133 29.5067 26.3638 29.7562 26.0502 29.7881L25.9818 29.7914H17.819L17.7507 29.7881C17.437 29.7562 17.1875 29.5067 17.1556 29.1931L17.1523 29.1247V17.8506C17.1523 17.5055 17.4146 17.2214 17.7507 17.1872L17.819 17.184H25.9818L26.0502 17.1872C26.3863 17.2214 26.6485 17.5055 26.6485 17.8506V29.1247Z" fill="#1F1F1F"/>
<path d="M6.67987 28.1248H12.8427V18.8506H6.67987V28.1248ZM14.5094 29.1248L14.5061 29.1931C14.4742 29.5068 14.2248 29.7563 13.9111 29.7882L13.8427 29.7914H5.67986L5.6115 29.7882C5.29786 29.7562 5.04835 29.5068 5.01644 29.1931L5.01318 29.1248V17.8506C5.01318 17.5055 5.27541 17.2214 5.6115 17.1872L5.67986 17.184H13.8427L13.9111 17.1872C14.2472 17.2214 14.5094 17.5055 14.5094 17.8506V29.1248Z" fill="#1F1F1F"/>
</svg>
