<svg width="49" height="49" viewBox="0 0 49 49" fill="none" xmlns="http://www.w3.org/2000/svg">
<path d="M24.5721 16.0156L39.4221 30.8655C39.5337 30.9761 39.6222 31.1079 39.6827 31.2529C39.7431 31.398 39.7742 31.5533 39.7742 31.7105C39.7742 31.8676 39.7431 32.0232 39.6827 32.1682C39.6222 32.3132 39.5337 32.445 39.4221 32.5557C39.3106 32.6675 39.1781 32.7561 39.0323 32.8167C38.8864 32.8772 38.73 32.9084 38.5721 32.9084C38.4142 32.9084 38.2578 32.8772 38.1119 32.8167C37.9661 32.7561 37.8336 32.6675 37.7221 32.5557L24.5721 19.4055L11.4221 32.5557C11.3133 32.6764 11.1811 32.7737 11.0335 32.8418C10.886 32.9099 10.7261 32.9474 10.5636 32.9519C10.4011 32.9564 10.2394 32.9278 10.0883 32.8679C9.93718 32.808 9.79982 32.7181 9.68454 32.6035C9.56926 32.4889 9.47846 32.3519 9.41766 32.2012C9.35686 32.0504 9.32733 31.8888 9.33084 31.7263C9.33436 31.5638 9.37085 31.4038 9.43811 31.2559C9.50537 31.1079 9.60198 30.975 9.72211 30.8655L24.5721 16.0156Z" fill="#9C9C9C"/>
</svg>
