<?xml version="1.0" encoding="UTF-8"?>
<!--Generator: Apple Native CoreSVG 175-->
<!DOCTYPE svg
PUBLIC "-//W3C//DTD SVG 1.1//EN"
       "http://www.w3.org/Graphics/SVG/1.1/DTD/svg11.dtd">
<svg version="1.1" xmlns="http://www.w3.org/2000/svg" xmlns:xlink="http://www.w3.org/1999/xlink" width="16.1071" height="16.1299">
 <g>
  <rect height="16.1299" opacity="0" width="16.1071" x="0" y="0"/>
  <path d="M0 8.05873Q0 8.41718 0.260029 8.67721Q0.520063 8.93724 0.878513 8.93724L7.18021 8.93724L7.18021 15.2389Q7.18021 15.587 7.44024 15.8522Q7.70027 16.1175 8.05873 16.1175Q8.41717 16.1175 8.67202 15.8522Q8.92688 15.587 8.92688 15.2389L8.92688 8.93724L15.2389 8.93724Q15.587 8.93724 15.8471 8.67721Q16.1071 8.41718 16.1071 8.05873Q16.1071 7.70028 15.8471 7.44024Q15.587 7.18021 15.2389 7.18021L8.92688 7.18021L8.92688 0.878514Q8.92688 0.530426 8.67202 0.26521Q8.41717 1.77636e-15 8.05873 1.77636e-15Q7.70027 1.77636e-15 7.44024 0.26521Q7.18021 0.530426 7.18021 0.878514L7.18021 7.18021L0.878513 7.18021Q0.520063 7.18021 0.260029 7.44024Q0 7.70028 0 8.05873Z" fill="rgba(0,0,0,0.85)"/>
 </g>
</svg>
