<svg width="37" height="51" viewBox="0 0 37 51" fill="none" xmlns="http://www.w3.org/2000/svg">
<g clip-path="url(#clip0_6001_2769)">
<path d="M36.29 24.1768C36.27 23.2568 35.93 22.3668 35.32 21.6668C34.71 20.9668 33.88 20.4968 32.97 20.3468C31.94 20.1568 30.88 20.3468 29.99 20.8968C29.76 20.3268 29.4 19.8068 28.95 19.3868C28.5 18.9668 27.96 18.6468 27.38 18.4568C26.8 18.2668 26.17 18.1968 25.56 18.2668C24.95 18.3368 24.35 18.5368 23.83 18.8568C22.34 16.3168 21.07 15.8468 17.9 16.6668V16.0768C17.9 15.7568 17.9 15.4268 17.9 15.1068C20.28 13.7068 21.89 11.1368 21.89 8.17681C21.88 3.72681 18.26 0.106812 13.82 0.106812C9.38002 0.106812 5.75002 3.72681 5.75002 8.17681C5.75002 11.1268 7.35002 13.6868 9.72002 15.0968C9.72002 19.0668 9.72002 23.0368 9.72002 27.0068V27.6368L9.59002 27.6568C8.92002 26.5168 8.28002 25.3568 7.57002 24.2368C7.25002 23.7168 6.81002 23.2868 6.30002 22.9568C5.78002 22.6268 5.20002 22.4268 4.60002 22.3468C3.99002 22.2768 3.38002 22.3468 2.80002 22.5368C2.22002 22.7268 1.69002 23.0568 1.26002 23.4768C0.580019 24.1268 0.140019 24.9968 0.0400192 25.9268C-0.0599808 26.8668 0.170019 27.8068 0.690019 28.5868C2.01002 30.5868 3.01002 32.7868 3.64002 35.0968C4.45002 38.5568 5.95002 41.8168 8.06002 44.6768C8.39002 45.1268 8.68002 45.5968 9.00002 46.0568C9.97002 47.4368 10.95 48.8068 11.93 50.1768C12.03 50.3768 12.2 50.5268 12.42 50.6068C12.63 50.6868 12.86 50.6768 13.07 50.5868C13.4 50.4068 13.66 50.1068 13.78 49.7568C13.79 49.4268 13.68 49.1068 13.47 48.8568C11.82 46.4268 10.16 44.0068 8.50002 41.5968C7.54002 40.2068 6.83002 38.6668 6.40002 37.0368C5.60002 33.6468 4.25002 30.4068 2.42002 27.4368C2.17002 26.9668 2.09002 26.4368 2.18002 25.9168C2.25002 25.5068 2.46002 25.1368 2.76002 24.8568C3.06002 24.5768 3.45002 24.4068 3.87002 24.3768C4.28002 24.3168 4.70002 24.3768 5.06002 24.5668C5.43002 24.7568 5.73002 25.0468 5.92002 25.4168C7.14002 27.4968 8.36002 29.5868 9.58002 31.6768C9.69002 31.9568 9.90002 32.1868 10.17 32.3168C10.44 32.4468 10.75 32.4768 11.04 32.3868C11.67 32.1968 11.79 31.7168 11.79 31.1268C11.79 26.3968 11.79 21.6768 11.79 16.9468C11.79 14.0368 11.79 11.1368 11.79 8.22681C11.77 7.76681 11.9 7.30681 12.18 6.93681C12.46 6.56681 12.85 6.29681 13.3 6.18681C13.61 6.09681 13.94 6.08681 14.26 6.14681C14.58 6.21681 14.88 6.35681 15.13 6.55681C15.38 6.75681 15.58 7.02681 15.71 7.31681C15.84 7.61681 15.9 7.93681 15.88 8.26681V25.1168C15.88 25.8868 16.29 26.3768 16.93 26.3568C17.55 26.3468 17.92 25.8868 17.92 25.1268V20.4968C17.89 20.2168 17.92 19.9268 18.01 19.6568C18.1 19.3868 18.24 19.1368 18.44 18.9268C18.63 18.7168 18.86 18.5468 19.12 18.4368C19.38 18.3268 19.66 18.2668 19.95 18.2668C20.23 18.2668 20.52 18.3068 20.78 18.4168C21.04 18.5268 21.28 18.6868 21.47 18.8968C21.66 19.1068 21.81 19.3468 21.9 19.6168C21.99 19.8868 22.03 20.1668 22 20.4568C22 22.0368 22 23.6168 22 25.2068C21.98 25.3468 22 25.4968 22.04 25.6368C22.08 25.7768 22.16 25.9068 22.25 26.0068C22.35 26.1168 22.47 26.1968 22.6 26.2568C22.73 26.3168 22.88 26.3468 23.02 26.3468C23.63 26.3468 24.02 25.9068 24.03 25.1968C24.03 24.2868 24.03 23.3768 24.03 22.4668C24.01 22.1868 24.05 21.8968 24.15 21.6268C24.25 21.3568 24.4 21.1168 24.59 20.9068C24.79 20.6968 25.02 20.5368 25.29 20.4268C25.56 20.3168 25.83 20.2668 26.12 20.2668C26.4 20.2668 26.67 20.3268 26.93 20.4368C27.19 20.5468 27.41 20.7168 27.6 20.9168C27.79 21.1268 27.93 21.3668 28.02 21.6268C28.11 21.8868 28.14 22.1668 28.12 22.4468C28.12 23.9868 28.12 25.5368 28.12 27.0768C28.12 27.8868 28.5 28.3368 29.14 28.3468C29.78 28.3468 30.16 27.8968 30.17 27.0968C30.17 26.1668 30.17 25.2368 30.17 24.3068C30.16 23.8968 30.28 23.4868 30.51 23.1468C30.74 22.8068 31.08 22.5568 31.47 22.4168C31.79 22.2868 32.14 22.2468 32.48 22.2868C32.82 22.3268 33.15 22.4568 33.43 22.6668C33.71 22.8668 33.93 23.1468 34.08 23.4568C34.23 23.7668 34.29 24.1168 34.26 24.4568C34.27 26.8068 34.3 29.1668 34.24 31.5168C34.24 32.7268 34.1 33.9268 33.83 35.0968C33.16 37.6968 32.36 40.2668 31.58 42.8268C30.84 44.8768 30.37 47.0068 30.17 49.1768C30.13 50.0868 30.47 50.5868 31.12 50.6268C31.78 50.6568 32.16 50.1668 32.22 49.2868C32.24 48.6768 32.31 48.0668 32.45 47.4668C33.1 45.1668 33.77 42.8768 34.47 40.5868C35.4 38.0168 35.98 35.3368 36.21 32.6168C36.31 29.7868 36.32 26.9568 36.28 24.1368L36.29 24.1768ZM16.6 5.21681C15.83 4.48681 14.8 4.08681 13.74 4.10681C12.68 4.12681 11.66 4.55681 10.91 5.30681C10.16 6.05681 9.73002 7.07681 9.72002 8.13681C9.72002 9.63681 9.72002 11.1268 9.72002 12.6268C8.51002 11.5168 7.75002 9.93681 7.75002 8.16681C7.75002 4.81681 10.47 2.09681 13.82 2.09681C17.17 2.09681 19.89 4.81681 19.89 8.16681C19.89 9.94681 19.12 11.5368 17.9 12.6368C17.9 11.0868 17.9 9.54681 17.88 7.99681C17.83 6.93681 17.38 5.93681 16.6 5.20681V5.21681Z" fill="white"/>
</g>
<defs>
<clipPath id="clip0_6001_2769">
<rect width="36.32" height="50.55" fill="white" transform="translate(0 0.106812)"/>
</clipPath>
</defs>
</svg>
