<svg width="30" height="30" viewBox="0 0 30 30" fill="none" xmlns="http://www.w3.org/2000/svg">
<path d="M8.14648 27.0406C9.9687 28.0927 12.0046 28.7205 14.1029 28.8773C16.2011 29.0342 18.3077 28.716 20.2661 27.9466C22.2245 27.1771 23.9842 25.9762 25.4145 24.4329C26.8448 22.8897 27.9089 21.0439 28.5276 19.0328C29.1463 17.0218 29.3037 14.8971 28.9882 12.8168C28.6726 10.7364 27.8922 8.75401 26.705 7.01684C25.5178 5.27967 23.9542 3.83245 22.1307 2.78277C20.3071 1.7331 18.2703 1.10797 16.1719 0.953857" stroke="#D9D9D9"/>
<path d="M16.2243 0.957877C14.1264 0.795898 12.019 1.10887 10.0588 1.87353C8.09852 2.63819 6.33583 3.83486 4.90177 5.37458C3.46771 6.9143 2.39915 8.75746 1.77554 10.767C1.15192 12.7766 0.989299 14.9009 1.29975 16.982C1.61021 19.0631 2.38575 21.0474 3.56873 22.7875C4.75172 24.5275 6.3117 25.9786 8.13271 27.0327C9.95372 28.0868 11.9889 28.7169 14.087 28.8762C16.1851 29.0354 18.2921 28.7197 20.2513 27.9525" stroke="#9C9C9C"/>
<rect width="4" height="4" transform="matrix(-1 0 0 1 17 13)" fill="#D9D9D9"/>
</svg>
