<svg width="49" height="48" viewBox="0 0 49 48" fill="none" xmlns="http://www.w3.org/2000/svg">
<path d="M30.5306 37.4367C30.3725 37.4394 30.2156 37.4098 30.0694 37.3496C29.9233 37.2894 29.7909 37.2001 29.6806 37.0869L16.3306 23.7368L29.6806 10.3967C29.7894 10.2759 29.9216 10.1787 30.0692 10.1106C30.2167 10.0424 30.3766 10.0049 30.5391 10.0005C30.7016 9.99598 30.8633 10.0245 31.0144 10.0844C31.1655 10.1443 31.3029 10.2342 31.4182 10.3488C31.5334 10.4634 31.6242 10.6004 31.685 10.7512C31.7458 10.9019 31.7754 11.0635 31.7719 11.226C31.7683 11.3886 31.7318 11.5485 31.6646 11.6965C31.5973 11.8445 31.5007 11.9774 31.3806 12.0869L19.7206 23.7368L31.3806 35.3967C31.5328 35.5665 31.6334 35.7762 31.6707 36.0012C31.708 36.2261 31.6804 36.4571 31.5912 36.667C31.5021 36.8768 31.3549 37.057 31.1671 37.1862C30.9792 37.3155 30.7585 37.3884 30.5306 37.3967V37.4367Z" fill="#9C9C9C"/>
</svg>
