<svg width="75" height="78" viewBox="0 0 75 78" fill="none" xmlns="http://www.w3.org/2000/svg">
<g id="Scrollen" clip-path="url(#clip0_5296_3647)">
<g id="Gruppe 1776">
<g id="Group 6">
<g id="Clip path group">
<mask id="mask0_5296_3647" style="mask-type:luminance" maskUnits="userSpaceOnUse" x="15" y="29" width="38" height="49">
<g id="clip-path">
<path id="Clip 5" d="M15.1328 29.9956H52.2748V77.6586H15.1328V29.9956Z" fill="white"/>
</g>
</mask>
<g mask="url(#mask0_5296_3647)">
<g id="Group 6_2">
<path id="Fill 4" d="M25.0658 54.0957V53.4527C25.0658 47.0194 25.0675 40.586 25.0708 34.1527C25.0823 33.0652 25.518 32.0251 26.2849 31.2541C27.0519 30.483 28.0896 30.0418 29.177 30.0245C30.2645 30.0071 31.3157 30.415 32.1069 31.1612C32.898 31.9075 33.3666 32.9331 33.4128 34.0197C33.4438 36.7707 33.4228 39.5197 33.4238 42.2737V42.8737C36.6658 42.0307 37.9648 42.5157 39.4918 45.1097C40.0327 44.7832 40.6379 44.5777 41.2658 44.5074C41.8937 44.437 42.5294 44.5035 43.1291 44.7022C43.7289 44.9009 44.2785 45.2271 44.7402 45.6584C45.2019 46.0897 45.5648 46.6158 45.8038 47.2007C46.7159 46.6396 47.8043 46.4382 48.8568 46.6357C49.7898 46.7931 50.6389 47.2706 51.2579 47.9862C51.877 48.7018 52.2273 49.6107 52.2488 50.5567C52.2898 53.4477 52.2848 56.3427 52.1818 59.2327C51.9457 62.0159 51.3463 64.7561 50.3988 67.3837C49.6881 69.7217 48.9995 72.067 48.3328 74.4197C48.1936 75.0304 48.1152 75.6535 48.0988 76.2797C48.0338 77.1797 47.6398 77.6797 46.9688 77.6457C46.2978 77.6117 45.9578 77.0947 45.9958 76.1667C46.1978 73.9502 46.6831 71.7688 47.4398 69.6757C48.2398 67.0477 49.0548 64.4217 49.7398 61.7637C50.0143 60.5606 50.1535 59.3307 50.1548 58.0967C50.2178 55.6907 50.1868 53.2827 50.1718 50.8747C50.1965 50.5223 50.1316 50.1693 49.983 49.8488C49.8345 49.5283 49.6072 49.2506 49.3224 49.0416C49.0375 48.8326 48.7044 48.6992 48.354 48.6537C48.0037 48.6083 47.6475 48.6523 47.3188 48.7817C46.9208 48.9194 46.5773 49.1808 46.3385 49.5277C46.0998 49.8746 45.9783 50.2888 45.9918 50.7097C45.9758 51.6607 45.9918 52.6097 45.9838 53.5617C45.9768 54.3867 45.5838 54.8507 44.9288 54.8447C44.2738 54.8387 43.8858 54.3697 43.8828 53.5447C43.8778 51.9667 43.8828 50.3887 43.8778 48.8107C43.9021 48.5264 43.8673 48.2401 43.7754 47.97C43.6835 47.6999 43.5366 47.4517 43.3439 47.2412C43.1513 47.0307 42.9171 46.8625 42.6561 46.747C42.3952 46.6316 42.1131 46.5716 41.8278 46.5707C41.537 46.5641 41.2481 46.6183 40.9795 46.7298C40.7109 46.8413 40.4686 47.0077 40.268 47.2183C40.0674 47.4289 39.9129 47.679 39.8146 47.9527C39.7162 48.2264 39.6761 48.5176 39.6968 48.8077C39.6858 49.7377 39.7018 50.6687 39.6918 51.5997C39.6838 52.3277 39.2788 52.7727 38.6568 52.7727C38.5084 52.772 38.3619 52.7402 38.2266 52.6793C38.0913 52.6184 37.9703 52.5299 37.8713 52.4193C37.7724 52.3088 37.6977 52.1788 37.6521 52.0376C37.6066 51.8964 37.5911 51.7472 37.6068 51.5997C37.5948 49.9817 37.6068 48.3627 37.6008 46.7447C37.6281 46.4554 37.5936 46.1636 37.4998 45.8886C37.4059 45.6136 37.2547 45.3617 37.0562 45.1495C36.8577 44.9372 36.6164 44.7696 36.3482 44.6576C36.0801 44.5456 35.7913 44.4918 35.5008 44.4997C35.21 44.4993 34.9223 44.5598 34.6563 44.6773C34.3903 44.7948 34.1518 44.9667 33.9563 45.182C33.7607 45.3972 33.6124 45.651 33.5208 45.9271C33.4293 46.2031 33.3966 46.4952 33.4248 46.7847C33.4248 48.3627 33.4248 49.9407 33.4248 51.5187C33.4248 52.2967 33.0428 52.7617 32.4098 52.7747C31.7598 52.7877 31.3358 52.2927 31.3358 51.5037C31.3358 45.7584 31.3358 40.013 31.3358 34.2677C31.3568 33.9362 31.298 33.6046 31.1644 33.3006C31.0307 32.9965 30.8261 32.729 30.5678 32.5203C30.3094 32.3117 30.0047 32.1681 29.6793 32.1015C29.354 32.0349 29.0174 32.0473 28.6978 32.1377C28.2392 32.2536 27.8351 32.5252 27.5546 32.906C27.274 33.2869 27.1345 33.7533 27.1598 34.2257C27.1518 37.1997 27.1598 40.1737 27.1598 43.1477C27.1598 47.983 27.1618 52.818 27.1658 57.6527C27.1658 58.2527 27.0408 58.7437 26.3968 58.9377C26.1011 59.0286 25.7819 59.004 25.5035 58.8689C25.2252 58.7338 25.0084 58.4983 24.8968 58.2097C23.6498 56.0757 22.4098 53.9377 21.1568 51.8097C20.9595 51.4361 20.6506 51.1334 20.2731 50.9438C19.8955 50.7541 19.4683 50.687 19.0508 50.7517C18.6297 50.7856 18.2317 50.9584 17.9193 51.2429C17.6069 51.5274 17.3978 51.9075 17.3248 52.3237C17.2341 52.8553 17.3216 53.402 17.5738 53.8787C19.4506 56.911 20.8269 60.2258 21.6498 63.6957C22.0927 65.3623 22.8197 66.9401 23.7988 68.3597C25.4995 70.833 27.1938 73.31 28.8818 75.7907C29.0979 76.0494 29.2108 76.3788 29.1988 76.7157C29.0696 77.0809 28.8095 77.3853 28.4688 77.5697C28.2588 77.6602 28.0222 77.6673 27.8071 77.5897C27.5921 77.512 27.4146 77.3554 27.3108 77.1517C26.3061 75.7517 25.3061 74.346 24.3108 72.9347C23.9838 72.4707 23.6868 71.9847 23.3518 71.5267C21.199 68.5989 19.6621 65.2651 18.8338 61.7267C18.1848 59.3613 17.1655 57.1135 15.8138 55.0667C15.2773 54.2667 15.0416 53.3025 15.1485 52.3453C15.2554 51.388 15.698 50.4996 16.3978 49.8377C16.8455 49.4031 17.3848 49.074 17.976 48.8746C18.5673 48.6752 19.1957 48.6104 19.8152 48.6851C20.4347 48.7598 21.0297 48.972 21.5566 49.3062C22.0836 49.6404 22.5292 50.0881 22.8608 50.6167C23.5818 51.7637 24.2408 52.9497 24.9268 54.1167L25.0628 54.0957" fill="white"/>
</g>
</g>
</g>
</g>
<g id="Group 9">
<g id="Clip path group_2">
<mask id="mask1_5296_3647" style="mask-type:luminance" maskUnits="userSpaceOnUse" x="23" y="5" width="13" height="21">
<g id="clip-path-2">
<path id="Clip 8" d="M23.8171 25.6416L23.8171 5.5086L35.0171 5.5086L35.0171 25.6416L23.8171 25.6416Z" fill="white"/>
</g>
</mask>
<g mask="url(#mask1_5296_3647)">
<g id="Group 9_2">
<path id="Fill 7" d="M28.1247 9.43115C27.3357 10.2431 26.5527 11.0601 25.7547 11.8631C25.5863 12.0554 25.3547 12.1812 25.1017 12.2179C24.8487 12.2545 24.5909 12.1997 24.3747 12.0631C24.1565 11.9533 23.9855 11.768 23.8935 11.5416C23.8016 11.3152 23.7949 11.0631 23.8747 10.8321C23.9456 10.6049 24.0717 10.3987 24.2417 10.2321C25.6564 8.79948 27.0791 7.37681 28.5097 5.96415C28.6159 5.82152 28.7541 5.70592 28.9133 5.62673C29.0724 5.54753 29.248 5.50697 29.4258 5.50833C29.6036 5.5097 29.7785 5.55295 29.9364 5.63458C30.0944 5.7162 30.2308 5.83391 30.3347 5.97815C31.7481 7.37615 33.1557 8.77981 34.5577 10.1891C34.6918 10.2857 34.8028 10.4108 34.8828 10.5553C34.9628 10.6999 35.0099 10.8604 35.0206 11.0252C35.0313 11.1901 35.0054 11.3553 34.9447 11.509C34.8841 11.6627 34.7902 11.801 34.6697 11.9141C34.5517 12.0202 34.4131 12.1009 34.2625 12.1513C34.112 12.2016 33.9527 12.2205 33.7946 12.2068C33.6365 12.1931 33.4828 12.1471 33.3432 12.0717C33.2035 11.9962 33.0809 11.8929 32.9827 11.7681C32.2157 11.0081 31.4647 10.2251 30.7067 9.45215L30.5487 9.52815L30.5487 10.2801L30.5487 24.0261C30.5487 24.1351 30.5487 24.2441 30.5487 24.3531C30.5634 24.5115 30.5459 24.6712 30.4973 24.8226C30.4487 24.974 30.37 25.1141 30.266 25.2344C30.162 25.3546 30.0347 25.4527 29.8919 25.5226C29.749 25.5925 29.5936 25.6328 29.4347 25.6411C28.7627 25.6491 28.3087 25.1341 28.3077 24.3171C28.3037 19.8005 28.3037 15.2841 28.3077 10.7681L28.3077 9.53915L28.1277 9.43015" fill="white"/>
</g>
</g>
</g>
</g>
</g>
</g>
<defs>
<clipPath id="clip0_5296_3647">
<rect width="75" height="77" fill="white" transform="translate(0 0.658203)"/>
</clipPath>
</defs>
</svg>
