<svg width="49" height="49" viewBox="0 0 49 49" fill="none" xmlns="http://www.w3.org/2000/svg">
<path d="M24.0306 13.0783C23.5187 12.8033 22.9407 12.6752 22.3606 12.7082C21.7827 12.7357 21.223 12.9186 20.7406 13.238L12.3606 18.8283C12.2267 18.915 12.0701 18.9602 11.9106 18.9582H6.53059C6.1103 18.9567 5.69395 19.039 5.30589 19.2004C4.91783 19.3618 4.56584 19.5991 4.27058 19.8982C3.97282 20.1944 3.73652 20.5465 3.57521 20.9343C3.4139 21.3221 3.33075 21.7384 3.33058 22.1584V30.1584C3.32944 30.5778 3.41102 30.9928 3.5706 31.3806C3.73018 31.7684 3.96465 32.1211 4.2606 32.4182C4.55704 32.7185 4.91062 32.9564 5.30049 33.1179C5.69036 33.2793 6.10862 33.3609 6.53059 33.3581H11.9206C12.0797 33.3595 12.2353 33.4044 12.3706 33.488L20.7506 39.0783C21.2301 39.3974 21.7856 39.5838 22.3606 39.6184H22.5306C23.0816 39.6095 23.6214 39.4618 24.1003 39.1892C24.5792 38.9165 24.9817 38.5276 25.2706 38.0583C25.5705 37.5601 25.7296 36.9899 25.7306 36.4084V15.8982C25.7321 15.3163 25.5729 14.7454 25.2706 14.2483C24.9747 13.75 24.5451 13.3448 24.0306 13.0783Z" fill="#9C9C9C"/>
<path d="M32.6807 16.3081C32.4572 16.5346 32.3318 16.84 32.3318 17.1582C32.3318 17.4764 32.4572 17.7814 32.6807 18.0078C34.3876 20.001 35.3257 22.539 35.3257 25.1631C35.3257 27.7873 34.3876 30.3247 32.6807 32.3179C32.5691 32.4285 32.4806 32.5601 32.4201 32.7051C32.3597 32.8501 32.3286 33.006 32.3286 33.1631C32.3286 33.3202 32.3597 33.4756 32.4201 33.6206C32.4806 33.7657 32.5691 33.8972 32.6807 34.0078C32.7911 34.121 32.9234 34.2108 33.0695 34.271C33.2157 34.3312 33.3726 34.3606 33.5307 34.3579C33.6884 34.3583 33.8447 34.3277 33.9905 34.2676C34.1364 34.2075 34.269 34.1192 34.3807 34.0078C36.5396 31.5672 37.7313 28.4215 37.7313 25.1631C37.7313 21.9047 36.5396 18.7585 34.3807 16.3179C34.1556 16.093 33.8509 15.9662 33.5327 15.9644C33.2146 15.9625 32.9085 16.0859 32.6807 16.3081Z" fill="#9C9C9C"/>
<path d="M40.3811 10.3178C40.2723 10.1971 40.1401 10.0998 39.9925 10.0317C39.8449 9.96357 39.685 9.92582 39.5226 9.92135C39.3601 9.91687 39.1984 9.94591 39.0473 10.0058C38.8962 10.0657 38.7588 10.1554 38.6435 10.27C38.5283 10.3846 38.4375 10.5216 38.3767 10.6723C38.3159 10.8231 38.2863 10.9844 38.2898 11.1469C38.2933 11.3094 38.3298 11.4697 38.3971 11.6176C38.4644 11.7656 38.561 11.8983 38.6811 12.0078C41.6904 15.7317 43.3319 20.3752 43.3319 25.163C43.3319 29.9509 41.6904 34.5939 38.6811 38.3178C38.5695 38.4285 38.481 38.56 38.4205 38.705C38.3601 38.8501 38.329 39.0059 38.329 39.163C38.329 39.3202 38.3601 39.4755 38.4205 39.6206C38.481 39.7656 38.5695 39.8971 38.6811 40.0078C38.7915 40.1209 38.9238 40.2108 39.07 40.271C39.2161 40.3311 39.3731 40.3605 39.5311 40.3579C39.6888 40.3583 39.8451 40.3276 39.9909 40.2675C40.1368 40.2075 40.2694 40.1191 40.3811 40.0078C40.5911 39.7878 45.7311 34.5482 45.7311 25.1582C45.7311 15.7682 40.5911 10.5278 40.3811 10.3178Z" fill="#9C9C9C"/>
</svg>
