<svg width="49" height="49" viewBox="0 0 49 49" fill="none" xmlns="http://www.w3.org/2000/svg">
<g id="forward dicker">
<path id="Vector" d="M24.1294 35.9309C24.0005 35.9331 23.8724 35.9096 23.7529 35.8613C23.6334 35.813 23.5249 35.741 23.4337 35.6498C23.3426 35.5587 23.2707 35.4502 23.2224 35.3307C23.1741 35.2111 23.1503 35.0831 23.1525 34.9542V13.789C23.1556 13.6234 23.2014 13.4614 23.2856 13.3188C23.3697 13.1762 23.4894 13.0578 23.6328 12.975C23.7803 12.8907 23.9472 12.8462 24.1171 12.8462C24.287 12.8462 24.454 12.8907 24.6015 12.975L43.6502 23.5576C43.8019 23.6433 43.9284 23.7673 44.017 23.9173C44.1056 24.0673 44.1531 24.2379 44.1549 24.4122C44.1548 24.5867 44.108 24.7583 44.0192 24.9086C43.9305 25.059 43.803 25.1828 43.6502 25.2672L24.6015 35.8498C24.4534 35.916 24.2911 35.9437 24.1294 35.9309ZM25.957 16.8481V31.8481L39.4282 24.316L25.957 16.8481Z" fill="#9C9C9C"/>
<path id="Vector_2" d="M5.89888 35.9309C5.76999 35.9331 5.64198 35.9096 5.52246 35.8613C5.40295 35.813 5.29439 35.741 5.20324 35.6498C5.11208 35.5587 5.04021 35.4502 4.9919 35.3307C4.94359 35.2111 4.91981 35.0831 4.92202 34.9542V13.789C4.92511 13.6234 4.97097 13.4614 5.05512 13.3188C5.13928 13.1762 5.25889 13.0578 5.40232 12.975C5.54985 12.8907 5.71678 12.8462 5.88666 12.8462C6.05654 12.8462 6.22349 12.8907 6.37102 12.975L25.4197 23.5576C25.5714 23.6433 25.6979 23.7673 25.7865 23.9173C25.8751 24.0673 25.9227 24.2379 25.9244 24.4122C25.9244 24.5867 25.8775 24.7583 25.7887 24.9086C25.7 25.059 25.5726 25.1828 25.4197 25.2672L6.37102 35.8498C6.22293 35.916 6.0606 35.9437 5.89888 35.9309ZM7.72656 16.8481V31.8481L21.1977 24.316L7.72656 16.8481Z" fill="#9C9C9C"/>
</g>
</svg>
