<svg width="32" height="32" viewBox="0 0 32 32" fill="none" xmlns="http://www.w3.org/2000/svg">
<g id="close">
<path id="Vector" d="M5.12669 6.08674C5.06453 6.02502 5.01513 5.95206 4.98133 5.87125C4.94752 5.79044 4.92996 5.70364 4.92965 5.61604C4.92934 5.52844 4.9463 5.44123 4.97953 5.36018C5.01277 5.27913 5.06163 5.20554 5.12335 5.14338C5.18507 5.08122 5.25844 5.03201 5.33925 4.9982C5.42006 4.96439 5.50674 4.94708 5.59434 4.94677C5.68194 4.94646 5.76873 4.96301 5.84977 4.99625C5.93082 5.02948 6.00453 5.07841 6.06669 5.14013L15.7934 14.8602L25.5133 5.13362C25.5753 5.07113 25.6491 5.02163 25.7303 4.98779C25.8115 4.95394 25.8987 4.93636 25.9867 4.93636C26.0747 4.93636 26.1618 4.95394 26.2431 4.98779C26.3243 5.02163 26.398 5.07113 26.46 5.13362C26.5225 5.1956 26.5721 5.26918 26.606 5.35042C26.6398 5.43166 26.6572 5.51892 26.6572 5.60693C26.6572 5.69494 26.6398 5.7822 26.606 5.86344C26.5721 5.94468 26.5225 6.01826 26.46 6.08024L16.7334 15.8003L26.46 25.5269C26.5842 25.6518 26.6539 25.8208 26.6539 25.9969C26.6539 26.173 26.5842 26.342 26.46 26.467C26.398 26.5294 26.3243 26.5789 26.2431 26.6128C26.1618 26.6466 26.0747 26.6642 25.9867 26.6642C25.8987 26.6642 25.8115 26.6466 25.7303 26.6128C25.6491 26.5789 25.5753 26.5294 25.5133 26.467L15.7934 16.7534L6.06669 26.4735C6.00453 26.5352 5.93082 26.5841 5.84977 26.6173C5.76872 26.6506 5.68194 26.6678 5.59434 26.6675C5.50674 26.6672 5.42006 26.6492 5.33925 26.6154C5.25844 26.5816 5.18507 26.5324 5.12335 26.4702C5.06163 26.408 5.01277 26.3345 4.97953 26.2534C4.9463 26.1724 4.92934 26.0851 4.92965 25.9976C4.92996 25.91 4.94752 25.8238 4.98132 25.743C5.01513 25.6622 5.06453 25.5886 5.12669 25.5268L14.8467 15.8003L5.12669 6.08674Z" fill="#9C9C9C"/>
</g>
</svg>
