<svg width="49" height="49" viewBox="0 0 49 49" fill="none" xmlns="http://www.w3.org/2000/svg">
<path d="M39.7306 27.0657V37.3557C39.7306 38.4696 39.2881 39.5378 38.5004 40.3254C37.7128 41.1131 36.6445 41.5549 35.5306 41.5549H12.5306C11.4167 41.5549 10.3484 41.1131 9.56073 40.3254C8.77308 39.5378 8.33057 38.4696 8.33057 37.3557V27.0657C8.33057 26.7474 8.45699 26.4421 8.68204 26.217C8.90708 25.992 9.21232 25.8655 9.53058 25.8655C9.84884 25.8655 10.154 25.992 10.3791 26.217C10.6041 26.4421 10.7306 26.7474 10.7306 27.0657V37.3557C10.7306 37.8331 10.9202 38.2906 11.2578 38.6282C11.5953 38.9657 12.0532 39.1555 12.5306 39.1555H35.5306C36.008 39.1555 36.4658 38.9657 36.8034 38.6282C37.1409 38.2906 37.3306 37.8331 37.3306 37.3557V27.0657C37.3306 26.7474 37.457 26.4421 37.682 26.217C37.9071 25.992 38.2123 25.8655 38.5306 25.8655C38.8488 25.8655 39.154 25.992 39.3791 26.217C39.6041 26.4421 39.7306 26.7474 39.7306 27.0657Z" fill="#9C9C9C"/>
<path d="M32.6605 17.6057C32.5494 17.718 32.4169 17.8063 32.2709 17.8665C32.1249 17.9266 31.9683 17.9568 31.8105 17.9553C31.6524 17.958 31.4955 17.9286 31.3493 17.8684C31.2031 17.8082 31.0708 17.7189 30.9604 17.6057L25.2304 11.8752V31.6057C25.2304 31.924 25.104 32.2283 24.879 32.4534C24.6539 32.6784 24.3487 32.8049 24.0305 32.8049C23.7122 32.8049 23.407 32.6784 23.1819 32.4534C22.9569 32.2283 22.8304 31.924 22.8304 31.6057V11.8752L17.1005 17.6057C16.989 17.7176 16.8565 17.8059 16.7106 17.8665C16.5648 17.927 16.4084 17.9583 16.2505 17.9583C16.0925 17.9583 15.9361 17.927 15.7903 17.8665C15.6444 17.8059 15.5119 17.7176 15.4005 17.6057C15.2889 17.4951 15.2003 17.363 15.1399 17.218C15.0795 17.073 15.0483 16.9171 15.0483 16.76C15.0483 16.6029 15.0795 16.448 15.1399 16.303C15.2003 16.1579 15.2889 16.0259 15.4005 15.9153L23.1805 8.16528L24.0305 7.31567L24.8805 8.16528L32.6605 15.9456C32.8767 16.1677 32.9977 16.4656 32.9977 16.7756C32.9977 17.0857 32.8767 17.3835 32.6605 17.6057Z" fill="#9C9C9C"/>
</svg>
