<svg width="49" height="49" viewBox="0 0 49 49" fill="none" xmlns="http://www.w3.org/2000/svg">
<path d="M46.2373 21.2776L33.9673 30.1877L38.6573 44.6174C38.7394 44.8595 38.742 45.1214 38.6648 45.365C38.5876 45.6086 38.4346 45.8213 38.2282 45.9719C38.0217 46.1226 37.7726 46.2037 37.517 46.2029C37.2614 46.2021 37.0128 46.1195 36.8073 45.9675L24.5273 37.0476L12.2573 45.9675C12.0502 46.1159 11.8021 46.1962 11.5473 46.1975C11.2957 46.1961 11.0508 46.1157 10.8473 45.9675C10.6423 45.8166 10.4896 45.6051 10.4107 45.363C10.3318 45.1209 10.3306 44.8602 10.4073 44.6174L15.0973 30.1877L2.81733 21.2776C2.6144 21.1263 2.46402 20.9153 2.38737 20.6741C2.31072 20.4328 2.31167 20.1735 2.39006 19.9329C2.46844 19.6922 2.62033 19.4821 2.82435 19.3323C3.02837 19.1824 3.27422 19.1002 3.52732 19.0974H18.6973L23.3873 4.66772C23.4663 4.42764 23.6189 4.21826 23.8237 4.07007C24.0284 3.92187 24.2746 3.84204 24.5273 3.84204C24.78 3.84204 25.0263 3.92187 25.231 4.07007C25.4357 4.21826 25.5884 4.42764 25.6673 4.66772L30.3573 19.0974H45.5373C45.7927 19.0958 46.042 19.1761 46.2488 19.3259C46.4557 19.4758 46.6093 19.6872 46.6874 19.9304C46.7655 20.1736 46.7639 20.4357 46.683 20.678C46.6021 20.9202 46.4459 21.1302 46.2373 21.2776Z" fill="#9C9C9C"/>
</svg>
