<svg width="49" height="49" viewBox="0 0 49 49" fill="none" xmlns="http://www.w3.org/2000/svg">
<g clip-path="url(#clip0_587_18892)">
<path d="M33.3006 7.33033V6.01027C33.3019 5.44521 33.1915 4.88534 32.9759 4.36305C32.7603 3.84075 32.4436 3.36636 32.0441 2.96681C31.6445 2.56725 31.17 2.25055 30.6477 2.03492C30.1254 1.8193 29.5656 1.7089 29.0005 1.71022H20.0005C19.4355 1.7089 18.8757 1.8193 18.3535 2.03492C17.8312 2.25055 17.3566 2.56725 16.9571 2.96681C16.5575 3.36636 16.2408 3.84075 16.0252 4.36305C15.8096 4.88534 15.6992 5.44521 15.7006 6.01027V7.33033H6.33057V9.93019H8.33057L10.7706 42.4602C10.8933 44.0185 11.5964 45.4741 12.7408 46.5388C13.8851 47.6036 15.3875 48.2 16.9506 48.2102H32.0206C33.5821 48.2002 35.0831 47.6052 36.2272 46.5425C37.3713 45.4798 38.0755 44.0267 38.2006 42.4702L40.6406 9.93019H42.6406V7.33033H33.3006ZM18.3006 6.01027C18.3006 5.55847 18.4794 5.1251 18.7979 4.8047C19.1164 4.4843 19.5488 4.30295 20.0005 4.3003H29.0005C29.4523 4.30295 29.8847 4.4843 30.2032 4.8047C30.5218 5.1251 30.7006 5.55847 30.7006 6.01027V7.33033H18.3306L18.3006 6.01027ZM35.8106 42.2903C35.733 43.2436 35.3005 44.1331 34.5988 44.783C33.897 45.4329 32.977 45.7959 32.0206 45.8003H16.9806C16.0245 45.7981 15.1044 45.4355 14.4038 44.7849C13.7032 44.1344 13.2735 43.2436 13.2006 42.2903L10.7606 9.93019H38.2706L35.8106 42.2903Z" fill="#9C9C9C"/>
<path d="M20.6021 40.29C20.6186 40.4603 20.601 40.6322 20.5504 40.7956C20.4998 40.9591 20.4173 41.1109 20.3074 41.2422C20.1976 41.3734 20.0628 41.4814 19.9108 41.56C19.7588 41.6386 19.5927 41.6861 19.4222 41.6999H19.3122C18.9856 41.7011 18.6706 41.5793 18.4297 41.3589C18.1889 41.1384 18.0398 40.8354 18.0121 40.51L15.7322 14.3899C15.7017 14.0464 15.8088 13.7051 16.0301 13.4406C16.2514 13.1762 16.5687 13.0104 16.9121 12.9799C17.2556 12.9494 17.5971 13.0568 17.8615 13.278C18.126 13.4993 18.2916 13.8164 18.3221 14.1599L20.6021 40.29Z" fill="#9C9C9C"/>
<path d="M25.8212 14.2397V40.4497C25.8212 40.7945 25.6842 41.1251 25.4404 41.3689C25.1966 41.6127 24.866 41.7498 24.5212 41.7498C24.1764 41.7498 23.8458 41.6127 23.602 41.3689C23.3582 41.1251 23.2212 40.7945 23.2212 40.4497V14.2397C23.2212 13.895 23.3582 13.5644 23.602 13.3206C23.8458 13.0768 24.1764 12.9397 24.5212 12.9397C24.866 12.9397 25.1966 13.0768 25.4404 13.3206C25.6842 13.5644 25.8212 13.895 25.8212 14.2397Z" fill="#9C9C9C"/>
<path d="M33.7105 14.3996L31.4305 40.5097C31.4028 40.8351 31.2538 41.1381 31.0129 41.3586C30.772 41.5791 30.457 41.7008 30.1304 41.6997H30.0205C29.8499 41.6859 29.6838 41.6384 29.5318 41.5598C29.3798 41.4812 29.245 41.3731 29.1352 41.2419C29.0254 41.1107 28.9428 40.9588 28.8922 40.7954C28.8416 40.6319 28.824 40.4601 28.8405 40.2897L31.1205 14.1696C31.1356 13.9996 31.184 13.8342 31.263 13.6828C31.3421 13.5315 31.4501 13.3974 31.5811 13.2878C31.712 13.1782 31.8632 13.0955 32.0261 13.0444C32.189 12.9933 32.3604 12.9746 32.5304 12.9897C32.7005 13.0048 32.8659 13.0532 33.0173 13.1323C33.1686 13.2113 33.3029 13.3195 33.4125 13.4504C33.5221 13.5813 33.6048 13.7326 33.6559 13.8955C33.707 14.0584 33.7256 14.2296 33.7105 14.3996Z" fill="#9C9C9C"/>
</g>
<defs>
<clipPath id="clip0_587_18892">
<rect width="48" height="48" fill="white" transform="translate(0.330566 0.710205)"/>
</clipPath>
</defs>
</svg>
