<svg width="25" height="25" viewBox="0 0 25 25" fill="none" xmlns="http://www.w3.org/2000/svg">
<g clip-path="url(#clip0_1097_35502)">
<path d="M23.3832 4.73438H12.0382C11.9038 4.13047 11.5674 3.59065 11.0848 3.20361C10.6021 2.81658 10.0019 2.60547 9.38321 2.60547C8.76452 2.60547 8.16432 2.81658 7.68164 3.20361C7.19896 3.59065 6.86264 4.13047 6.7282 4.73438H1.38321C1.22408 4.73437 1.07146 4.79763 0.958939 4.91016C0.846417 5.02268 0.783203 5.17534 0.783203 5.33447C0.783203 5.4936 0.846417 5.64627 0.958939 5.75879C1.07146 5.87131 1.22408 5.93457 1.38321 5.93457H6.7282C6.86264 6.53847 7.19896 7.0783 7.68164 7.46533C8.16432 7.85237 8.76452 8.06348 9.38321 8.06348C10.0019 8.06348 10.6021 7.85237 11.0848 7.46533C11.5674 7.0783 11.9038 6.53847 12.0382 5.93457H23.3832C23.5423 5.93457 23.6949 5.87131 23.8075 5.75879C23.92 5.64627 23.9832 5.4936 23.9832 5.33447C23.9832 5.17534 23.92 5.02268 23.8075 4.91016C23.6949 4.79763 23.5423 4.73437 23.3832 4.73438V4.73438ZM10.7832 5.93457C10.6744 6.21755 10.4823 6.46068 10.2324 6.63232C9.98247 6.80397 9.6864 6.896 9.38321 6.896C9.08002 6.896 8.78394 6.80397 8.53401 6.63232C8.28409 6.46068 8.09205 6.21755 7.9832 5.93457C7.90061 5.74532 7.85797 5.54096 7.85797 5.33447C7.85797 5.12799 7.90061 4.92362 7.9832 4.73438C8.09205 4.4514 8.28409 4.20826 8.53401 4.03662C8.78394 3.86498 9.08002 3.77295 9.38321 3.77295C9.6864 3.77295 9.98247 3.86498 10.2324 4.03662C10.4823 4.20826 10.6744 4.4514 10.7832 4.73438C10.8658 4.92362 10.9084 5.12799 10.9084 5.33447C10.9084 5.54096 10.8658 5.74532 10.7832 5.93457V5.93457Z" fill="#9C9C9C"/>
<path d="M23.3832 11.7344H21.0382C20.9038 11.1305 20.5674 10.5906 20.0848 10.2036C19.6021 9.81658 19.0019 9.60547 18.3832 9.60547C17.7645 9.60547 17.1643 9.81658 16.6816 10.2036C16.199 10.5906 15.8626 11.1305 15.7282 11.7344H1.38321C1.22408 11.7344 1.07146 11.7976 0.958939 11.9102C0.846417 12.0227 0.783203 12.1753 0.783203 12.3345C0.783203 12.4936 0.846417 12.6463 0.958939 12.7588C1.07146 12.8713 1.22408 12.9346 1.38321 12.9346H15.7282C15.8626 13.5385 16.199 14.0783 16.6816 14.4653C17.1643 14.8524 17.7645 15.0635 18.3832 15.0635C19.0019 15.0635 19.6021 14.8524 20.0848 14.4653C20.5674 14.0783 20.9038 13.5385 21.0382 12.9346H23.3832C23.5423 12.9346 23.6949 12.8713 23.8075 12.7588C23.92 12.6463 23.9832 12.4936 23.9832 12.3345C23.9832 12.1753 23.92 12.0227 23.8075 11.9102C23.6949 11.7976 23.5423 11.7344 23.3832 11.7344V11.7344ZM19.7832 12.9346C19.6744 13.2175 19.4823 13.4607 19.2324 13.6323C18.9825 13.804 18.6864 13.896 18.3832 13.896C18.08 13.896 17.7839 13.804 17.534 13.6323C17.2841 13.4607 17.092 13.2175 16.9832 12.9346C16.9006 12.7453 16.858 12.541 16.858 12.3345C16.858 12.128 16.9006 11.9236 16.9832 11.7344C17.092 11.4514 17.2841 11.2083 17.534 11.0366C17.7839 10.865 18.08 10.7729 18.3832 10.7729C18.6864 10.7729 18.9825 10.865 19.2324 11.0366C19.4823 11.2083 19.6744 11.4514 19.7832 11.7344C19.8658 11.9236 19.9084 12.128 19.9084 12.3345C19.9084 12.541 19.8658 12.7453 19.7832 12.9346V12.9346Z" fill="#9C9C9C"/>
<path d="M23.3832 18.7344H9.03821C8.90376 18.1305 8.56744 17.5906 8.08476 17.2036C7.60209 16.8166 7.0019 16.6055 6.38321 16.6055C5.76452 16.6055 5.16432 16.8166 4.68164 17.2036C4.19896 17.5906 3.86264 18.1305 3.7282 18.7344H1.38321C1.22408 18.7344 1.07146 18.7976 0.958939 18.9102C0.846417 19.0227 0.783203 19.1753 0.783203 19.3345C0.783203 19.4936 0.846417 19.6463 0.958939 19.7588C1.07146 19.8713 1.22408 19.9346 1.38321 19.9346H3.7282C3.86264 20.5385 4.19896 21.0783 4.68164 21.4653C5.16432 21.8524 5.76452 22.0635 6.38321 22.0635C7.0019 22.0635 7.60209 21.8524 8.08476 21.4653C8.56744 21.0783 8.90376 20.5385 9.03821 19.9346H23.3832C23.462 19.9346 23.54 19.9191 23.6128 19.8889C23.6856 19.8588 23.7517 19.8145 23.8075 19.7588C23.8632 19.7031 23.9074 19.6368 23.9375 19.564C23.9677 19.4912 23.9832 19.4133 23.9832 19.3345C23.9832 19.2557 23.9677 19.1778 23.9375 19.105C23.9074 19.0322 23.8632 18.9659 23.8075 18.9102C23.7517 18.8544 23.6856 18.8102 23.6128 18.78C23.54 18.7499 23.462 18.7344 23.3832 18.7344V18.7344ZM7.7832 19.9346C7.67436 20.2175 7.48232 20.4607 7.23239 20.6323C6.98247 20.804 6.6864 20.896 6.38321 20.896C6.08002 20.896 5.78394 20.804 5.53401 20.6323C5.28409 20.4607 5.09205 20.2175 4.9832 19.9346C4.90061 19.7453 4.85797 19.541 4.85797 19.3345C4.85797 19.128 4.90061 18.9236 4.9832 18.7344C5.09205 18.4514 5.28409 18.2083 5.53401 18.0366C5.78394 17.865 6.08002 17.7729 6.38321 17.7729C6.6864 17.7729 6.98247 17.865 7.23239 18.0366C7.48232 18.2083 7.67436 18.4514 7.7832 18.7344C7.8658 18.9236 7.90843 19.128 7.90843 19.3345C7.90843 19.541 7.8658 19.7453 7.7832 19.9346V19.9346Z" fill="#9C9C9C"/>
</g>
<defs>
<clipPath id="clip0_1097_35502">
<rect width="24" height="24" fill="white" transform="translate(0.283203 0.109375)"/>
</clipPath>
</defs>
</svg>
