<svg width="49" height="49" viewBox="0 0 49 49" fill="none" xmlns="http://www.w3.org/2000/svg">
<g clip-path="url(#clip0_587_18877)">
<path d="M29.4842 30.3047V33.3529H38.3265C40.2704 33.3529 41.9365 32.9964 43.325 32.2833C44.7135 31.57 45.7769 30.6044 46.5154 29.3863C47.2538 28.1682 47.623 26.7955 47.623 25.2682C47.623 23.3495 47.0897 21.6486 46.0231 20.1655C44.9565 18.6823 43.4954 17.5621 41.6398 16.8047C41.6398 14.6967 41.2926 12.756 40.5984 10.9825C39.9042 9.20903 38.9291 7.67223 37.6731 6.3721C36.4172 5.07196 34.953 4.06215 33.2805 3.34266C31.608 2.62317 29.7999 2.26343 27.856 2.26343C26.1392 2.26343 24.5898 2.53797 23.2076 3.08705C21.8255 3.63614 20.6011 4.37141 19.5345 5.29286C18.4679 6.21431 17.5558 7.22412 16.7985 8.32229C15.7256 8.03197 14.6179 8.00672 13.4756 8.24654C12.3332 8.48638 11.2761 8.95026 10.3041 9.6382C9.3322 10.3261 8.54013 11.1939 7.92794 12.2416C7.31574 13.2893 6.99702 14.4821 6.97176 15.8201C5.54541 16.0347 4.31155 16.5428 3.27017 17.3443C2.22881 18.1458 1.42728 19.1588 0.865571 20.3833C0.303864 21.6076 0.0230103 22.9645 0.0230103 24.4541C0.0230103 26.095 0.417468 27.5875 1.20638 28.9318C1.99529 30.2762 3.12817 31.3491 4.60502 32.1507C6.08188 32.9522 7.85536 33.3529 9.92546 33.3529H18.3321V30.3047H9.90654C8.41706 30.3047 7.16426 30.0428 6.14815 29.5189C5.13203 28.995 4.3652 28.2913 3.84768 27.4077C3.33015 26.5241 3.07139 25.5395 3.07139 24.4541C3.07139 22.6363 3.62047 21.1311 4.71864 19.9383C5.8168 18.7454 7.36938 18.149 9.37639 18.149C9.61622 18.149 9.73614 18.0165 9.73614 17.7514C9.73614 15.8075 10.1401 14.3149 10.9479 13.2735C11.7558 12.2321 12.7782 11.5758 14.0152 11.3044C15.2522 11.033 16.5208 11.0866 17.8209 11.4653C18.0355 11.5284 18.1933 11.4716 18.2943 11.2949C18.9128 10.1967 19.6512 9.1964 20.5095 8.29389C21.3679 7.39137 22.3998 6.66872 23.6053 6.12594C24.8107 5.58317 26.2276 5.31178 27.856 5.31178C29.926 5.31178 31.7563 5.80091 33.3468 6.77917C34.9373 7.75742 36.1995 9.04808 37.1335 10.6512C38.0676 12.2542 38.5852 13.9962 38.6861 15.8769C38.7113 16.3061 38.7145 16.7637 38.6956 17.2496C38.6766 17.7356 38.6482 18.1995 38.6103 18.6412C38.5851 18.8937 38.6861 19.0388 38.9134 19.0767C40.63 19.4554 42.0027 20.1749 43.0315 21.2352C44.0602 22.2955 44.5746 23.6398 44.5746 25.2682C44.5746 26.7197 44.0476 27.9221 42.9936 28.8752C41.9397 29.8282 40.3776 30.3047 38.3075 30.3047H29.4842ZM23.9176 44.5997C24.107 44.5997 24.2868 44.5587 24.4572 44.4766C24.6277 44.3945 24.8076 44.2652 24.997 44.0885L31.3965 38.1054C31.6995 37.8403 31.851 37.5058 31.851 37.1019C31.851 36.7231 31.7184 36.4076 31.4533 36.1551C31.1883 35.9027 30.8601 35.7765 30.4688 35.7765C30.0902 35.7765 29.7494 35.928 29.4464 36.2309L26.5684 39.109L25.2998 40.4343L25.4134 37.6131V21.3678C25.4134 20.9639 25.2651 20.6168 24.9685 20.3265C24.6718 20.0362 24.3215 19.891 23.9176 19.891C23.5012 19.891 23.1446 20.0362 22.848 20.3265C22.5513 20.6168 22.403 20.9639 22.403 21.3678V37.6131L22.5166 40.4531L21.248 39.109L18.37 36.2309C18.0671 35.928 17.72 35.7765 17.3286 35.7765C16.9373 35.7765 16.6123 35.9027 16.3535 36.1551C16.0948 36.4076 15.9654 36.7231 15.9654 37.1019C15.9654 37.5058 16.1169 37.8403 16.4198 38.1054L22.8195 44.0885C23.0215 44.2652 23.2045 44.3945 23.3685 44.4766C23.5327 44.5587 23.7157 44.5997 23.9176 44.5997Z" fill="#9C9C9C"/>
</g>
<defs>
<clipPath id="clip0_587_18877">
<rect width="48" height="48" fill="white" transform="translate(0.0230103 0.955811)"/>
</clipPath>
</defs>
</svg>
