<svg width="17" height="18" viewBox="0 0 17 18" fill="none" xmlns="http://www.w3.org/2000/svg">
<path d="M14.1524 16.415H3.08243C2.9233 16.415 2.77068 16.3518 2.65816 16.2393C2.54564 16.1267 2.48242 15.9742 2.48242 15.8151C2.48242 15.6559 2.54564 15.5033 2.65816 15.3907C2.77068 15.2782 2.9233 15.2151 3.08243 15.2151H14.1524C14.3116 15.2151 14.4642 15.2782 14.5767 15.3907C14.6892 15.5033 14.7524 15.6559 14.7524 15.8151C14.7524 15.9742 14.6892 16.1267 14.5767 16.2393C14.4642 16.3518 14.3116 16.415 14.1524 16.415V16.415Z" fill="#9C9C9C"/>
<path d="M12.677 9.61011L8.36704 13.925L4.05203 9.61011C3.99625 9.55479 3.95197 9.4889 3.92175 9.41638C3.89154 9.34387 3.87598 9.26606 3.87598 9.1875C3.87598 9.10894 3.89154 9.03126 3.92175 8.95874C3.95197 8.88622 3.99625 8.82033 4.05203 8.76501C4.10777 8.70908 4.174 8.66468 4.24693 8.6344C4.31986 8.60412 4.39807 8.58862 4.47704 8.58862C4.556 8.58862 4.63419 8.60412 4.70712 8.6344C4.78005 8.66468 4.8463 8.70908 4.90204 8.76501L7.76202 11.625V2.52502C7.76202 2.36589 7.82525 2.21335 7.93778 2.10083C8.0503 1.98831 8.2029 1.92505 8.36203 1.92505C8.52116 1.92505 8.67378 1.98831 8.7863 2.10083C8.89882 2.21335 8.96204 2.36589 8.96204 2.52502V11.635L11.832 8.76501C11.9471 8.66926 12.0937 8.62001 12.2432 8.62683C12.3928 8.63366 12.5343 8.69605 12.6402 8.80188C12.746 8.90771 12.8084 9.04934 12.8153 9.19885C12.8221 9.34836 12.7728 9.49508 12.677 9.61011V9.61011Z" fill="#9C9C9C"/>
</svg>
