<svg width="63" height="48" viewBox="0 0 63 48" fill="none" xmlns="http://www.w3.org/2000/svg">
<g clip-path="url(#clip0_5296_3461)">
<mask id="mask0_5296_3461" style="mask-type:luminance" maskUnits="userSpaceOnUse" x="16" y="0" width="38" height="48">
<path d="M16.0667 0.0795898H53.2086V47.7426H16.0667V0.0795898Z" fill="white"/>
</mask>
<g mask="url(#mask0_5296_3461)">
<path d="M25.9996 24.1797V23.5367C25.9996 17.1033 26.0013 10.67 26.0046 4.23667C26.0162 3.14917 26.4518 2.10912 27.2188 1.33804C27.9857 0.566966 29.0234 0.125778 30.1109 0.108441C31.1983 0.0911037 32.2495 0.498986 33.0407 1.24522C33.8319 1.99146 34.3004 3.01709 34.3466 4.10367C34.3776 6.85467 34.3566 9.60367 34.3576 12.3577V12.9577C37.5996 12.1147 38.8986 12.5997 40.4256 15.1937C40.9666 14.8672 41.5718 14.6617 42.1997 14.5914C42.8275 14.521 43.4632 14.5875 44.063 14.7862C44.6627 14.9849 45.2124 15.3111 45.6741 15.7424C46.1358 16.1737 46.4986 16.6998 46.7376 17.2847C47.6498 16.7236 48.7381 16.5222 49.7906 16.7197C50.7237 16.8771 51.5727 17.3546 52.1917 18.0702C52.8108 18.7858 53.1612 19.6947 53.1826 20.6407C53.2236 23.5317 53.2186 26.4267 53.1156 29.3167C52.8796 32.0998 52.2802 34.8401 51.3326 37.4677C50.622 39.8057 49.9333 42.151 49.2666 44.5037C49.1274 45.1144 49.049 45.7375 49.0326 46.3637C48.9676 47.2637 48.5736 47.7637 47.9026 47.7297C47.2316 47.6957 46.8916 47.1787 46.9296 46.2507C47.1317 44.0342 47.617 41.8528 48.3736 39.7597C49.1736 37.1317 49.9886 34.5057 50.6736 31.8477C50.9482 30.6446 51.0874 29.4147 51.0886 28.1807C51.1516 25.7747 51.1206 23.3667 51.1056 20.9587C51.1303 20.6063 51.0654 20.2533 50.9169 19.9328C50.7683 19.6122 50.541 19.3345 50.2562 19.1256C49.9713 18.9166 49.6382 18.7832 49.2879 18.7377C48.9375 18.6923 48.5814 18.7363 48.2526 18.8657C47.8546 19.0033 47.5111 19.2647 47.2724 19.6117C47.0336 19.9586 46.9121 20.3728 46.9256 20.7937C46.9096 21.7447 46.9256 22.6937 46.9176 23.6457C46.9106 24.4707 46.5176 24.9347 45.8626 24.9287C45.2076 24.9227 44.8196 24.4537 44.8166 23.6287C44.8116 22.0507 44.8166 20.4727 44.8116 18.8947C44.836 18.6104 44.8011 18.3241 44.7092 18.054C44.6173 17.7838 44.4704 17.5357 44.2778 17.3252C44.0851 17.1147 43.8509 16.9464 43.59 16.831C43.329 16.7156 43.047 16.6556 42.7616 16.6547C42.4709 16.6481 42.182 16.7023 41.9134 16.8138C41.6448 16.9253 41.4024 17.0917 41.2018 17.3023C41.0012 17.5128 40.8468 17.763 40.7484 18.0367C40.6501 18.3104 40.61 18.6016 40.6306 18.8917C40.6196 19.8217 40.6356 20.7527 40.6256 21.6837C40.6176 22.4117 40.2126 22.8567 39.5906 22.8567C39.4423 22.856 39.2957 22.8242 39.1604 22.7633C39.0251 22.7024 38.9041 22.6139 38.8052 22.5033C38.7062 22.3928 38.6316 22.2627 38.586 22.1216C38.5404 21.9804 38.525 21.8312 38.5406 21.6837C38.5286 20.0657 38.5406 18.4467 38.5346 16.8287C38.5619 16.5394 38.5275 16.2476 38.4336 15.9726C38.3397 15.6976 38.1885 15.4457 37.99 15.2334C37.7915 15.0212 37.5502 14.8536 37.2821 14.7416C37.014 14.6296 36.7251 14.5757 36.4346 14.5837C36.1438 14.5833 35.8561 14.6438 35.5901 14.7613C35.3241 14.8788 35.0857 15.0507 34.8901 15.266C34.6945 15.4812 34.5462 15.735 34.4547 16.0111C34.3632 16.2871 34.3304 16.5792 34.3586 16.8687C34.3586 18.4467 34.3586 20.0247 34.3586 21.6027C34.3586 22.3807 33.9766 22.8457 33.3436 22.8587C32.6936 22.8717 32.2696 22.3767 32.2696 21.5877C32.2696 15.8423 32.2696 10.097 32.2696 4.35167C32.2906 4.02023 32.2319 3.68858 32.0982 3.38454C31.9646 3.08051 31.76 2.81295 31.5016 2.60431C31.2432 2.39568 30.9385 2.25205 30.6132 2.18547C30.2878 2.11889 29.9512 2.13131 29.6316 2.22167C29.173 2.33757 28.7689 2.60916 28.4884 2.99001C28.2079 3.37086 28.0683 3.83733 28.0936 4.30967C28.0856 7.28367 28.0936 10.2577 28.0936 13.2317C28.0936 18.067 28.0956 22.902 28.0996 27.7367C28.0996 28.3367 27.9746 28.8277 27.3306 29.0217C27.0349 29.1126 26.7157 29.088 26.4373 28.9529C26.159 28.8178 25.9422 28.5823 25.8306 28.2937C24.5836 26.1597 23.3436 24.0217 22.0906 21.8937C21.8933 21.5201 21.5844 21.2174 21.2069 21.0278C20.8294 20.8381 20.4021 20.771 19.9846 20.8357C19.5635 20.8696 19.1655 21.0424 18.8531 21.3269C18.5408 21.6114 18.3317 21.9915 18.2586 22.4077C18.1679 22.9393 18.2555 23.486 18.5076 23.9627C20.3844 26.995 21.7607 30.3098 22.5836 33.7797C23.0265 35.4463 23.7535 37.0241 24.7326 38.4437C26.4333 40.917 28.1276 43.394 29.8156 45.8747C30.0317 46.1334 30.1446 46.4628 30.1326 46.7997C30.0035 47.1649 29.7433 47.4692 29.4026 47.6537C29.1926 47.7441 28.9561 47.7513 28.741 47.6736C28.5259 47.596 28.3484 47.4394 28.2446 47.2357C27.24 45.8357 26.24 44.43 25.2446 43.0187C24.9176 42.5547 24.6206 42.0687 24.2856 41.6107C22.1329 38.6829 20.5959 35.3491 19.7676 31.8107C19.1186 29.4452 18.0994 27.1974 16.7476 25.1507C16.2111 24.3507 15.9754 23.3865 16.0823 22.4293C16.1892 21.472 16.6319 20.5836 17.3316 19.9217C17.7794 19.487 18.3186 19.158 18.9099 18.9586C19.5011 18.7592 20.1295 18.6944 20.749 18.7691C21.3685 18.8438 21.9635 19.056 22.4905 19.3902C23.0174 19.7244 23.463 20.1721 23.7946 20.7007C24.5156 21.8477 25.1746 23.0337 25.8606 24.2007L25.9966 24.1797" fill="white"/>
</g>
<mask id="mask1_5296_3461" style="mask-type:luminance" maskUnits="userSpaceOnUse" x="0" y="0" width="22" height="12">
<path d="M0.933594 0.043457H21.0666V11.2435H0.933594V0.043457Z" fill="white"/>
</mask>
<g mask="url(#mask1_5296_3461)">
<path d="M4.85668 6.94362C5.66868 7.73262 6.48568 8.51562 7.28868 9.31362C7.48095 9.4821 7.60674 9.7137 7.64341 9.9667C7.68007 10.2197 7.62521 10.4775 7.48868 10.6936C7.37883 10.9119 7.1935 11.0829 6.9671 11.1748C6.7407 11.2668 6.48863 11.2735 6.25768 11.1936C6.03042 11.1228 5.82428 10.9967 5.65768 10.8266C4.22502 9.41195 2.80235 7.98928 1.38968 6.55862C1.24706 6.45249 1.13146 6.31424 1.05226 6.15508C0.973069 5.99592 0.932507 5.82034 0.933871 5.64257C0.935235 5.4648 0.978485 5.28985 1.06011 5.13193C1.14174 4.974 1.25945 4.83754 1.40368 4.73362C2.80168 3.32028 4.20535 1.91262 5.61468 0.510616C5.71128 0.376574 5.83633 0.265562 5.98088 0.18554C6.12543 0.105518 6.28589 0.0584684 6.45077 0.0477636C6.61564 0.0370587 6.78084 0.0629641 6.93453 0.123622C7.08821 0.184281 7.22657 0.27819 7.33968 0.398616C7.44575 0.516704 7.52645 0.655303 7.57679 0.805834C7.62713 0.956366 7.64605 1.11563 7.63236 1.27376C7.61868 1.4319 7.57268 1.58554 7.49723 1.72519C7.42177 1.86483 7.31846 1.98751 7.19368 2.08562C6.43368 2.85262 5.65068 3.60362 4.87768 4.36162L4.95368 4.51962H5.70568H19.4517C19.5607 4.51962 19.6697 4.51962 19.7787 4.51962C19.937 4.50499 20.0967 4.52249 20.2481 4.57108C20.3996 4.61967 20.5396 4.69833 20.6599 4.80236C20.7802 4.90639 20.8782 5.03364 20.9481 5.17648C21.018 5.31932 21.0583 5.47481 21.0667 5.63362C21.0747 6.30562 20.5597 6.75962 19.7427 6.76062C15.226 6.76462 10.7097 6.76462 6.19368 6.76062H4.96468L4.85568 6.94062" fill="white"/>
</g>
<mask id="mask2_5296_3461" style="mask-type:luminance" maskUnits="userSpaceOnUse" x="41" y="0" width="22" height="12">
<path d="M62.0667 11.2397L41.9337 11.2397V0.0397463L62.0667 0.0397463V11.2397Z" fill="white"/>
</mask>
<g mask="url(#mask2_5296_3461)">
<path d="M58.1436 4.33959C57.3316 3.55059 56.5146 2.76759 55.7116 1.96959C55.5193 1.8011 55.3935 1.5695 55.3568 1.3165C55.3202 1.0635 55.375 0.805724 55.5116 0.589587C55.6214 0.371314 55.8067 0.200323 56.0331 0.108367C56.2595 0.0164108 56.5116 0.00973797 56.7426 0.0895872C56.9698 0.160446 57.176 0.28654 57.3426 0.456587C58.7752 1.87125 60.1979 3.29392 61.6106 4.72459C61.7532 4.83071 61.8688 4.96896 61.948 5.12812C62.0272 5.28728 62.0677 5.46287 62.0664 5.64064C62.065 5.81841 62.0218 5.99335 61.9401 6.15128C61.8585 6.3092 61.7408 6.44566 61.5966 6.54959C60.1986 7.96292 58.7949 9.37059 57.3856 10.7726C57.289 10.9066 57.1639 11.0176 57.0194 11.0977C56.8748 11.1777 56.7143 11.2247 56.5495 11.2354C56.3846 11.2461 56.2194 11.2202 56.0657 11.1596C55.912 11.0989 55.7737 11.005 55.6606 10.8846C55.5545 10.7665 55.4738 10.6279 55.4235 10.4774C55.3731 10.3268 55.3542 10.1676 55.3679 10.0094C55.3816 9.8513 55.4276 9.69766 55.503 9.55801C55.5785 9.41837 55.6818 9.2957 55.8066 9.19759C56.5666 8.43059 57.3496 7.67959 58.1226 6.92159L58.0466 6.76359H57.2946L43.5486 6.76359C43.4396 6.76359 43.3306 6.76359 43.2216 6.76359C43.0632 6.77821 42.9035 6.76071 42.7521 6.71212C42.6007 6.66354 42.4606 6.58487 42.3404 6.48084C42.2201 6.37681 42.122 6.24956 42.0521 6.10672C41.9822 5.96388 41.9419 5.80839 41.9336 5.64959C41.9256 4.97759 42.4406 4.52359 43.2576 4.52259C47.7742 4.51859 52.2906 4.51859 56.8066 4.52259H58.0356L58.1446 4.34259" fill="white"/>
</g>
</g>
<defs>
<clipPath id="clip0_5296_3461">
<rect width="61.133" height="47.7" fill="white" transform="translate(0.933594 0.043457)"/>
</clipPath>
</defs>
</svg>
