<svg width="49" height="49" viewBox="0 0 49 49" fill="none" xmlns="http://www.w3.org/2000/svg">
<path d="M24.0306 12.9729C23.5187 12.6979 22.9407 12.5697 22.3606 12.6028C21.7827 12.6302 21.223 12.8131 20.7406 13.1325L12.3606 18.7229C12.2267 18.8096 12.0701 18.8547 11.9106 18.8528H6.53059C6.1103 18.8513 5.69395 18.9335 5.30589 19.0949C4.91783 19.2563 4.56584 19.4936 4.27058 19.7927C3.97282 20.089 3.73652 20.441 3.57521 20.8288C3.4139 21.2167 3.33075 21.6329 3.33058 22.053V30.053C3.32944 30.4723 3.41102 30.8873 3.5706 31.2751C3.73018 31.6629 3.96465 32.0156 4.2606 32.3127C4.55704 32.613 4.91062 32.851 5.30049 33.0124C5.69036 33.1739 6.10862 33.2555 6.53059 33.2527H11.9206C12.0797 33.254 12.2353 33.2989 12.3706 33.3825L20.7506 38.9729C21.2301 39.2919 21.7856 39.4783 22.3606 39.5129H22.5306C23.0816 39.504 23.6214 39.3564 24.1003 39.0837C24.5792 38.8111 24.9817 38.4221 25.2706 37.9529C25.5705 37.4547 25.7296 36.8845 25.7306 36.303V15.7927C25.7321 15.2108 25.5729 14.64 25.2706 14.1428C24.9747 13.6446 24.5451 13.2393 24.0306 12.9729ZM23.3206 36.3225C23.3195 36.4677 23.278 36.6098 23.2006 36.7326C23.1318 36.8546 23.027 36.9527 22.9006 37.0129C22.7759 37.0849 22.6345 37.1227 22.4906 37.1228C22.3412 37.1114 22.1969 37.0632 22.0706 36.9826L13.6706 31.3728C13.1458 31.0345 12.535 30.854 11.9106 30.8528H6.53059C6.42424 30.8537 6.3188 30.833 6.22078 30.7917C6.12275 30.7504 6.03421 30.6893 5.96058 30.6125C5.8864 30.5396 5.82778 30.4524 5.78825 30.3562C5.74872 30.2599 5.72911 30.157 5.7306 30.053V22.053C5.72981 21.9481 5.7507 21.8441 5.792 21.7478C5.83331 21.6514 5.89412 21.5646 5.97059 21.4929C6.04306 21.4174 6.12997 21.3569 6.22618 21.3156C6.32239 21.2744 6.42592 21.253 6.53059 21.2527H11.9206C12.5547 21.2553 13.1749 21.0671 13.7006 20.7126L22.0806 15.1228C22.2083 15.0469 22.3523 15.0024 22.5006 14.9929C22.6426 14.9881 22.7836 15.0189 22.9106 15.0827C23.037 15.1558 23.1434 15.2586 23.2206 15.3825C23.2918 15.5075 23.3296 15.6489 23.3306 15.7927L23.3206 36.3225Z" fill="#9C9C9C"/>
<path d="M32.6807 16.2027C32.4572 16.4291 32.3318 16.7346 32.3318 17.0528C32.3318 17.3709 32.4572 17.6759 32.6807 17.9024C34.3876 19.8955 35.3257 22.4335 35.3257 25.0576C35.3257 27.6818 34.3876 30.2193 32.6807 32.2124C32.5691 32.3231 32.4806 32.4546 32.4201 32.5996C32.3597 32.7447 32.3286 32.9005 32.3286 33.0576C32.3286 33.2148 32.3597 33.3701 32.4201 33.5152C32.4806 33.6602 32.5691 33.7917 32.6807 33.9024C32.7911 34.0155 32.9234 34.1054 33.0695 34.1655C33.2157 34.2257 33.3726 34.2551 33.5307 34.2525C33.6884 34.2528 33.8447 34.2222 33.9905 34.1621C34.1364 34.1021 34.269 34.0137 34.3807 33.9024C36.5396 31.4617 37.7313 28.3161 37.7313 25.0576C37.7313 21.7992 36.5396 18.6531 34.3807 16.2124C34.1556 15.9876 33.8509 15.8608 33.5327 15.8589C33.2146 15.857 32.9085 15.9805 32.6807 16.2027Z" fill="#9C9C9C"/>
<path d="M40.3811 10.2124C40.2723 10.0916 40.1401 9.99436 39.9925 9.92623C39.8449 9.8581 39.685 9.82035 39.5226 9.81588C39.3601 9.81141 39.1984 9.84044 39.0473 9.90035C38.8962 9.96026 38.7588 10.0499 38.6435 10.1645C38.5283 10.2791 38.4375 10.4161 38.3767 10.5669C38.3159 10.7176 38.2863 10.879 38.2898 11.0415C38.2933 11.204 38.3298 11.3642 38.3971 11.5122C38.4644 11.6601 38.561 11.7928 38.6811 11.9023C41.6904 15.6263 43.3319 20.2697 43.3319 25.0576C43.3319 29.8455 41.6904 34.4884 38.6811 38.2124C38.5695 38.323 38.481 38.4545 38.4205 38.5996C38.3601 38.7446 38.329 38.9005 38.329 39.0576C38.329 39.2147 38.3601 39.3701 38.4205 39.5151C38.481 39.6601 38.5695 39.7917 38.6811 39.9023C38.7915 40.0155 38.9238 40.1053 39.07 40.1655C39.2161 40.2257 39.3731 40.2551 39.5311 40.2524C39.6888 40.2528 39.8451 40.2221 39.9909 40.1621C40.1368 40.102 40.2694 40.0136 40.3811 39.9023C40.5911 39.6823 45.7311 34.4427 45.7311 25.0527C45.7311 15.6627 40.5911 10.4224 40.3811 10.2124Z" fill="#9C9C9C"/>
</svg>
