<svg width="49" height="49" viewBox="0 0 49 49" fill="none" xmlns="http://www.w3.org/2000/svg">
<path d="M17.4026 36.34V38.4061H12.8704L12.6201 36.8914C12.0728 37.5106 11.3908 37.9988 10.6256 38.3187C9.8603 38.6387 9.03173 38.7823 8.20234 38.7386C4.94797 38.7386 2.75058 36.8069 2.75058 34.0223C2.75058 31.129 5.30958 29.337 8.64084 29.337C10.0353 29.3251 11.3981 29.7495 12.535 30.55V29.0062C12.5351 28.5707 12.442 28.14 12.2619 27.7428C12.0819 27.3455 11.8189 26.9906 11.4904 26.7014C11.1618 26.4122 10.7752 26.1954 10.356 26.0651C9.93671 25.9349 9.49436 25.8942 9.05808 25.9458C7.50475 25.9892 5.99362 26.4567 4.6911 27.2967L3.60632 25.3392C5.44024 24.2532 7.53378 23.6732 9.67 23.6591C13.2303 23.6591 15.3721 25.7804 15.3721 28.7305V36.34H17.4026ZM12.6201 33.9073C12.6201 32.3633 11.118 31.2881 9.14316 31.2881C7.14048 31.2881 5.7219 32.4233 5.7219 33.9348C5.7219 35.4463 7.08485 36.6368 9.11535 36.6368C11.1262 36.6432 12.6201 35.4853 12.6201 33.9138V33.9073Z" fill="#9C9C9C"/>
<path d="M45.9168 36.0909V38.4052H38.7421V34.3815C37.1845 37.1386 33.6798 39.0118 29.0641 39.0118C22.7779 39.0118 18.2653 35.3725 18.2653 29.9703C18.2653 24.6783 22.9939 21.0373 29.5026 21.0373C31.2259 20.9395 32.9484 21.2427 34.5323 21.9228C36.1162 22.6029 37.5176 23.641 38.6243 24.954V19.5485C38.6243 14.9183 35.3977 12.0508 30.2258 12.0508C27.0631 12.112 23.9804 13.0473 21.3249 14.7512L20.0455 12.6022C23.2234 10.6084 26.9098 9.55617 30.6708 9.56943C37.3448 9.56943 41.4058 13.5948 41.4058 19.2743V36.0909H45.9168ZM38.7421 29.86C38.7421 26.2207 35.0149 23.3532 29.9542 23.3532C24.7184 23.3532 21.2202 26.1671 21.2202 29.915C21.2202 33.5528 24.4468 36.5304 29.892 36.5304C35.0705 36.5239 38.7421 33.6582 38.7421 29.8535V29.86Z" fill="#9C9C9C"/>
</svg>
