<svg width="74" height="44" viewBox="0 0 74 44" fill="none" xmlns="http://www.w3.org/2000/svg">
<path d="M0 44H74V0H0V44Z" fill="#3B88A7"/>
<path d="M51.5281 33.446C50.0621 33.446 49.0281 32.434 49.0281 30.246C49.0281 25.776 51.7041 20.824 56.5091 20.824C56.9099 20.8011 57.3101 20.8782 57.6738 21.0484C58.0374 21.2186 58.3529 21.4765 58.5921 21.799C58.5661 21.774 59.8521 17.354 59.8521 17.354C59.9521 16.89 59.8261 16.763 59.1061 16.608L57.6921 16.351V15.811L62.0371 14.989H62.6021C62.2365 15.8444 61.9187 16.7194 61.6501 17.61L58.6931 28.71C58.3869 29.5825 58.1887 30.4893 58.1031 31.41C58.0953 31.7066 58.1389 32.0023 58.2321 32.284C58.7216 32.1624 59.1813 31.9425 59.5832 31.6377C59.9851 31.3329 60.3209 30.9496 60.5701 30.511L60.9031 31.102C60.6212 31.7381 60.1751 32.2876 59.6106 32.6943C59.0462 33.1009 58.3836 33.35 57.6911 33.416C55.6351 33.416 56.2261 30.692 56.5611 29.329C55.3511 31.308 53.7071 33.442 51.5221 33.442L51.5281 33.446ZM52.4481 31.822C54.0401 31.822 56.0711 29.456 56.9711 27.658L58.3601 22.595C58.1147 22.3707 57.8266 22.1982 57.513 22.0877C57.1995 21.9772 56.8669 21.9311 56.5351 21.952C53.5781 21.952 51.4201 25.885 51.4201 29.793C51.4201 31.411 51.7551 31.823 52.4491 31.823" fill="white"/>
<path d="M25.9801 33.2891H12.0801V12.0081H17.7221V28.3961H25.4771V12.0081H33.4051L36.4221 24.8961H36.4781L39.4651 12.0131H47.2001V33.2941H41.8121V19.6301H41.7571L38.4051 33.2881H33.7721L30.4221 19.6301H30.3661V33.2881L25.9801 33.2891Z" fill="white"/>
</svg>
