<svg width="49" height="49" viewBox="0 0 49 49" fill="none" xmlns="http://www.w3.org/2000/svg">
<path d="M24.3306 2.63153C19.9794 2.63153 15.7259 3.92117 12.108 6.33856C8.49016 8.75595 5.67035 12.1926 4.00522 16.2126C2.3401 20.2326 1.90443 24.6559 2.7533 28.9235C3.60218 33.1911 5.69748 37.1104 8.77424 40.1872C11.851 43.264 15.771 45.3598 20.0386 46.2087C24.3062 47.0576 28.7296 46.6219 32.7496 44.9567C36.7696 43.2916 40.2055 40.4721 42.6229 36.8542C45.0403 33.2363 46.3306 28.9827 46.3306 24.6315C46.3306 18.7968 44.0127 13.2007 39.8869 9.07489C35.7611 4.94909 30.1653 2.63153 24.3306 2.63153ZM24.3306 44.2311C20.4541 44.2311 16.6646 43.0821 13.4414 40.9284C10.2182 38.7747 7.70602 35.713 6.22254 32.1315C4.73906 28.5501 4.35091 24.6093 5.10718 20.8073C5.86345 17.0053 7.73018 13.5133 10.4713 10.7722C13.2124 8.03105 16.7048 6.16417 20.5068 5.4079C24.3088 4.65163 28.2498 5.03965 31.8312 6.52313C35.4126 8.00661 38.4737 10.5187 40.6274 13.7419C42.7811 16.9651 43.9306 20.755 43.9306 24.6315C43.9332 27.2081 43.4283 29.7599 42.4447 32.1413C41.4612 34.5227 40.0182 36.6867 38.1982 38.5104C36.3781 40.3342 34.2167 41.7818 31.8373 42.7702C29.4579 43.7586 26.9071 44.2686 24.3306 44.2712V44.2311Z" fill="#9C9C9C"/>
<path d="M31.5306 35.5807C31.5306 35.899 31.4042 36.2043 31.1791 36.4294C30.9541 36.6544 30.6488 36.7809 30.3306 36.7809H20.3306C20.0123 36.7809 19.7071 36.6544 19.4821 36.4294C19.257 36.2043 19.1306 35.899 19.1306 35.5807C19.1306 35.2625 19.257 34.9581 19.4821 34.7331C19.7071 34.508 20.0123 34.3815 20.3306 34.3815H24.0006V20.7809H20.5006C20.1823 20.7809 19.8771 20.6544 19.652 20.4294C19.427 20.2043 19.3006 19.899 19.3006 19.5807C19.3006 19.2625 19.427 18.9581 19.652 18.7331C19.8771 18.508 20.1823 18.3815 20.5006 18.3815H25.2006C25.3581 18.3815 25.5142 18.412 25.6598 18.4724C25.8054 18.5327 25.9377 18.6217 26.0491 18.7331C26.1605 18.8445 26.2489 18.9762 26.3092 19.1218C26.3695 19.2674 26.4006 19.4232 26.4006 19.5807V34.3815H30.3306C30.6488 34.3815 30.9541 34.508 31.1791 34.7331C31.4042 34.9581 31.5306 35.2625 31.5306 35.5807Z" fill="#9C9C9C"/>
<path d="M27.1206 12.6315C27.1206 13.037 27.0003 13.4331 26.7751 13.7702C26.5498 14.1073 26.2297 14.3699 25.8551 14.5251C25.4805 14.6802 25.0683 14.7214 24.6706 14.6423C24.273 14.5632 23.9077 14.3674 23.621 14.0807C23.3343 13.7941 23.1391 13.4286 23.06 13.0309C22.9809 12.6333 23.0214 12.221 23.1766 11.8464C23.3318 11.4718 23.5945 11.1517 23.9316 10.9265C24.2688 10.7012 24.6651 10.5807 25.0706 10.5807C25.6135 10.5834 26.1334 10.8004 26.5172 11.1843C26.9011 11.5681 27.1179 12.0886 27.1206 12.6315Z" fill="#9C9C9C"/>
</svg>
