<svg width="49" height="49" viewBox="0 0 49 49" fill="none" xmlns="http://www.w3.org/2000/svg">
<g id="backward dicker">
<path id="Vector" d="M23.9488 12.8492C24.0777 12.847 24.2057 12.8704 24.3252 12.9187C24.4447 12.967 24.5533 13.039 24.6444 13.1302C24.7356 13.2213 24.8074 13.3299 24.8558 13.4494C24.9041 13.5689 24.9278 13.6969 24.9256 13.8258L24.9256 34.991C24.9225 35.1566 24.8767 35.3186 24.7925 35.4612C24.7084 35.6039 24.5888 35.7223 24.4453 35.8051C24.2978 35.8893 24.1309 35.9338 23.961 35.9338C23.7911 35.9338 23.6242 35.8893 23.4766 35.8051L4.42793 25.2224C4.27621 25.1368 4.14971 25.0128 4.06112 24.8627C3.97253 24.7127 3.92498 24.5421 3.92322 24.3679C3.9233 24.1933 3.97015 24.0217 4.05891 23.8714C4.14767 23.7211 4.2751 23.5972 4.42793 23.5129L23.4766 12.9303C23.6247 12.864 23.7871 12.8363 23.9488 12.8492ZM22.1211 31.9319L22.1211 16.9319L8.64994 24.4641L22.1211 31.9319Z" fill="#9C9C9C"/>
<path id="Vector_2" d="M42.1792 12.8492C42.3081 12.847 42.4361 12.8704 42.5557 12.9187C42.6752 12.967 42.7837 13.039 42.8749 13.1302C42.966 13.2213 43.0379 13.3299 43.0862 13.4494C43.1345 13.5689 43.1583 13.6969 43.1561 13.8258L43.1561 34.991C43.153 35.1566 43.1072 35.3186 43.023 35.4612C42.9388 35.6039 42.8192 35.7223 42.6758 35.8051C42.5283 35.8893 42.3613 35.9338 42.1915 35.9338C42.0216 35.9338 41.8546 35.8893 41.7071 35.8051L22.6584 25.2224C22.5067 25.1368 22.3802 25.0128 22.2916 24.8627C22.203 24.7127 22.1554 24.5421 22.1537 24.3679C22.1538 24.1933 22.2006 24.0217 22.2894 23.8714C22.3781 23.7211 22.5056 23.5972 22.6584 23.5129L41.7071 12.9303C41.8552 12.864 42.0175 12.8363 42.1792 12.8492ZM40.3516 31.9319L40.3516 16.9319L26.8804 24.4641L40.3516 31.9319Z" fill="#9C9C9C"/>
</g>
</svg>
