<svg width="57" height="57" viewBox="0 0 57 57" fill="none" xmlns="http://www.w3.org/2000/svg">
<g id="play">
<path id="Vector" d="M17.9295 45.2162C17.7448 45.2193 17.5613 45.1857 17.39 45.1165C17.2188 45.0473 17.0632 44.9441 16.9325 44.8134C16.8019 44.6828 16.6989 44.5273 16.6297 44.356C16.5604 44.1847 16.5263 44.0012 16.5295 43.8165V13.4832C16.5339 13.2459 16.5997 13.0137 16.7203 12.8093C16.8409 12.6049 17.0123 12.4352 17.2179 12.3165C17.4293 12.1958 17.6685 12.132 17.912 12.132C18.1555 12.132 18.3947 12.1958 18.6062 12.3165L45.9062 27.4832C46.1236 27.606 46.3049 27.7837 46.4319 27.9987C46.5588 28.2138 46.627 28.4583 46.6295 28.708C46.6294 28.9582 46.5623 29.204 46.435 29.4195C46.3078 29.6349 46.1252 29.8124 45.9062 29.9333L18.6062 45.1C18.3939 45.1949 18.1613 45.2346 17.9295 45.2162ZM19.3295 15.8632V41.4365L42.3478 28.6031L19.3295 15.8632Z" fill="#9C9C9C"/>
</g>
</svg>
