<svg width="57" height="57" viewBox="0 0 57 57" fill="none" xmlns="http://www.w3.org/2000/svg">
<path d="M18.2336 45.2161C18.0488 45.2192 17.8654 45.1856 17.6941 45.1164C17.5228 45.0471 17.3672 44.944 17.2366 44.8133C17.1059 44.6827 17.0029 44.5272 16.9337 44.3559C16.8645 44.1846 16.8304 44.0011 16.8335 43.8164V13.4831C16.838 13.2458 16.9037 13.0136 17.0243 12.8092C17.1449 12.6047 17.3163 12.435 17.5219 12.3164C17.7333 12.1957 17.9726 12.1318 18.216 12.1318C18.4595 12.1318 18.6988 12.1957 18.9102 12.3164L46.2102 27.4831C46.4277 27.6059 46.609 27.7836 46.7359 27.9986C46.8629 28.2136 46.931 28.4582 46.9336 28.7078C46.9334 28.958 46.8663 29.2039 46.7391 29.4194C46.6119 29.6348 46.4293 29.8123 46.2102 29.9332L18.9102 45.0999C18.698 45.1948 18.4653 45.2344 18.2336 45.2161ZM19.6336 15.8631V41.4364L42.6519 28.603L19.6336 15.8631Z" fill="#9C9C9C"/>
</svg>
