<svg width="57" height="57" viewBox="0 0 57 57" fill="none" xmlns="http://www.w3.org/2000/svg">
<path d="M24.3723 43.5715H17.3723C16.6916 43.5715 16.0388 43.3015 15.5574 42.8201C15.0761 42.3388 14.8057 41.6859 14.8057 41.0052V15.5254C14.8057 14.8447 15.0761 14.1918 15.5574 13.7104C16.0388 13.2291 16.6916 12.9585 17.3723 12.9585H24.3723C25.0521 12.9616 25.7032 13.2332 26.1839 13.7139C26.6645 14.1945 26.936 14.8456 26.939 15.5254V41.0052C26.936 41.685 26.6645 42.3361 26.1839 42.8167C25.7032 43.2974 25.0521 43.5685 24.3723 43.5715ZM17.6057 40.7716H24.139V15.7584H17.6057V40.7716Z" fill="#9C9C9C"/>
<path d="M40.7057 43.7584H33.7057C33.3682 43.7599 33.0337 43.6948 32.7216 43.5664C32.4095 43.438 32.126 43.2491 31.8873 43.0104C31.6487 42.7718 31.4597 42.488 31.3313 42.1759C31.2028 41.8638 31.1375 41.5296 31.139 41.1921V15.5254C31.139 14.8447 31.4094 14.1918 31.8908 13.7104C32.3721 13.2291 33.025 12.9585 33.7057 12.9585H40.7057C41.3855 12.9616 42.0365 13.2332 42.5172 13.7139C42.9979 14.1945 43.2693 14.8456 43.2724 15.5254V41.1921C43.2724 41.8728 43.0019 42.5251 42.5206 43.0064C42.0392 43.4878 41.3864 43.7584 40.7057 43.7584ZM33.939 40.9585H40.4723V15.7584H33.939V40.9585Z" fill="#9C9C9C"/>
</svg>
